<?xml version="1.0" encoding="UTF-8"?>
<!-- Generator: Adobe Illustrator 23.0.5, SVG Export Plug-In . SVG Version: 6.00 Build 0)  -->
<svg version="1.1" id="Layer_1" xmlns="http://www.w3.org/2000/svg" xmlns:xlink="http://www.w3.org/1999/xlink" x="0px" y="0px" viewBox="0 0 250 50" style="enable-background:new 0 0 250 50;" xml:space="preserve">
<style type="text/css">
	.st0{clip-path:url(#SVGID_2_);fill:#556EE6;}
	.st1{clip-path:url(#SVGID_4_);}
	.st2{fill:#FFFFFF;}
	.st3{fill:#4F5B6D;}
</style>
<g>
	<g>
		<defs>
			<circle id="SVGID_1_" cx="21.5" cy="25" r="20.3"/>
		</defs>
		<clipPath id="SVGID_2_">
			<use xlink:href="#SVGID_1_" style="overflow:visible;"/>
		</clipPath>
		<rect x="1.1" y="4.7" class="st0" width="40.5" height="40.5"/>
	</g>
	<g>
		<defs>
			<circle id="SVGID_3_" cx="21.5" cy="25" r="20.3"/>
		</defs>
		<clipPath id="SVGID_4_">
			<use xlink:href="#SVGID_3_" style="overflow:visible;"/>
		</clipPath>
		<g class="st1">
			<path class="st2" d="M9.8,27.6l10.8-7.2c0.2-0.1,0.4-0.2,0.6-0.2c0.9,0,2,0.9,2,2.1c0,0.5-0.2,1-0.6,1.2L14,29.3l8.7,5.8     c0.4,0.2,0.6,0.7,0.6,1.2c0,1.2-1.1,2.1-2,2.1c-0.2,0-0.5,0-0.6-0.2L9.8,31c-0.6-0.4-0.9-1.1-0.9-1.7C8.9,28.8,9.2,28,9.8,27.6z"/>
			<path class="st2" d="M24.8,12.4v25.2c0,0.6-1,1.2-2.2,1.2c-1.3,0-2.2-0.6-2.2-1.2V12.4c0-0.7,0.9-1.2,2.2-1.2     C23.8,11.2,24.8,11.7,24.8,12.4z"/>
			<path class="st2" d="M34,14.6c0,0.8-0.4,1.4-1.1,1.4H10c-0.6,0-1.1-0.6-1.1-1.4c0-0.8,0.5-1.4,1.1-1.4h22.9     C33.5,13.2,34,13.9,34,14.6z"/>
			<polygon class="st2" points="20.4,20.6 20.4,25 18.7,26.1 18.6,21.7    "/>
			<polygon class="st2" points="18.6,32.4 18.6,36.9 20.3,38 20.4,33.6    "/>
		</g>
	</g>
</g>
<g>
	<path class="st3" d="M55.9,18.7c0.4-0.3,1-0.5,1.8-0.8s1.7-0.4,2.7-0.4c1.3,0,2.4,0.2,3.4,0.7s1.8,1.1,2.5,1.9s1.2,1.8,1.6,3   c0.4,1.1,0.5,2.4,0.5,3.8s-0.2,2.7-0.6,3.9s-1,2.1-1.8,2.9s-1.7,1.4-2.8,1.9c-1.1,0.4-2.3,0.7-3.7,0.7c-1.5,0-2.8-0.1-4-0.3   c-1.1-0.2-2.1-0.4-2.8-0.6V9.6L55.9,9V18.7z M55.9,33c0.3,0.1,0.8,0.2,1.4,0.3c0.6,0.1,1.3,0.1,2.2,0.1c1.7,0,3.1-0.6,4.1-1.7   c1-1.1,1.5-2.7,1.5-4.8c0-0.9-0.1-1.8-0.3-2.6c-0.2-0.8-0.5-1.5-0.9-2.1s-0.9-1-1.6-1.4c-0.7-0.3-1.4-0.5-2.4-0.5   c-0.9,0-1.7,0.1-2.4,0.4s-1.3,0.6-1.7,0.9V33H55.9z"/>
	<path class="st3" d="M72,26.8c0-1.6,0.2-3,0.7-4.1c0.5-1.2,1.1-2.2,1.8-2.9c0.8-0.8,1.6-1.4,2.6-1.8s2-0.6,3-0.6   c2.4,0,4.3,0.8,5.5,2.3c1.3,1.5,1.9,3.8,1.9,6.9c0,0.1,0,0.3,0,0.5s0,0.4,0,0.6H75.3c0.1,1.9,0.7,3.3,1.6,4.2   c0.9,1,2.4,1.4,4.4,1.4c1.1,0,2.1-0.1,2.8-0.3c0.8-0.2,1.3-0.4,1.7-0.6l0.4,2.7c-0.4,0.2-1.1,0.4-2,0.7c-1,0.2-2.1,0.3-3.3,0.3   c-1.6,0-2.9-0.2-4-0.7s-2.1-1.1-2.8-1.9c-0.7-0.8-1.3-1.8-1.6-2.9C72.1,29.4,72,28.2,72,26.8z M84.3,25.1c0-1.4-0.3-2.6-1.1-3.6   c-0.7-0.9-1.8-1.4-3.1-1.4c-0.7,0-1.4,0.1-1.9,0.4c-0.6,0.3-1,0.7-1.4,1.1c-0.4,0.5-0.7,1-0.9,1.6c-0.2,0.6-0.4,1.2-0.4,1.8h8.8   V25.1z"/>
	<path class="st3" d="M92.2,18.4c0.7-0.2,1.7-0.4,2.9-0.6c1.2-0.2,2.6-0.3,4.2-0.3c1.4,0,2.6,0.2,3.5,0.6s1.7,1,2.3,1.7   c0.6,0.7,1,1.6,1.2,2.6s0.3,2.1,0.3,3.3v10h-3.2v-9.4c0-1.1-0.1-2-0.2-2.8s-0.4-1.4-0.7-1.9c-0.3-0.5-0.8-0.8-1.4-1   s-1.3-0.3-2.1-0.3c-0.3,0-0.7,0-1.1,0s-0.7,0.1-1,0.1s-0.6,0.1-0.9,0.1s-0.5,0.1-0.6,0.1v15.1h-3.2L92.2,18.4L92.2,18.4z"/>
	<path class="st3" d="M123.2,34c-0.3,0.2-0.8,0.4-1.6,0.7c-0.8,0.3-1.7,0.4-2.8,0.4c-1.1,0-2.1-0.2-3-0.5c-1-0.3-1.8-0.9-2.5-1.6   c-0.7-0.7-1.3-1.6-1.7-2.7c-0.4-1.1-0.6-2.4-0.6-3.9c0-1.3,0.2-2.5,0.6-3.6s1-2,1.7-2.8s1.7-1.4,2.7-1.9c1.1-0.4,2.3-0.7,3.6-0.7   c1.5,0,2.8,0.1,3.9,0.3c1.1,0.2,2,0.4,2.8,0.6v16c0,2.8-0.7,4.7-2.1,6c-1.4,1.2-3.6,1.9-6.5,1.9c-1.1,0-2.2-0.1-3.2-0.3   s-1.9-0.4-2.6-0.7l0.6-2.8c0.6,0.3,1.4,0.5,2.4,0.7c0.9,0.2,1.9,0.3,2.9,0.3c1.9,0,3.3-0.4,4.1-1.1c0.8-0.8,1.3-2,1.3-3.6   C123.2,34.7,123.2,34,123.2,34z M123.1,20.7c-0.3-0.1-0.8-0.2-1.3-0.3c-0.5-0.1-1.3-0.1-2.2-0.1c-1.7,0-3,0.6-4,1.7   c-0.9,1.1-1.4,2.6-1.4,4.5c0,1,0.1,1.9,0.4,2.6s0.6,1.3,1.1,1.8c0.4,0.5,1,0.8,1.5,1.1c0.6,0.2,1.2,0.3,1.8,0.3   c0.8,0,1.6-0.1,2.3-0.4c0.7-0.2,1.3-0.5,1.7-0.8L123.1,20.7L123.1,20.7z"/>
	<path class="st3" d="M137.6,17.4c1.3,0,2.4,0.2,3.3,0.5c0.9,0.3,1.6,0.8,2.1,1.4s0.9,1.3,1.2,2.2c0.2,0.8,0.3,1.8,0.3,2.8v11.2   c-0.3,0-0.7,0.1-1.2,0.2c-0.5,0.1-1,0.2-1.7,0.2c-0.6,0.1-1.3,0.1-2,0.2c-0.7,0.1-1.4,0.1-2.2,0.1c-1,0-1.9-0.1-2.8-0.3   c-0.8-0.2-1.6-0.5-2.2-1c-0.6-0.4-1.1-1-1.4-1.8c-0.3-0.7-0.5-1.6-0.5-2.7c0-1,0.2-1.8,0.6-2.5c0.4-0.7,0.9-1.3,1.6-1.7   c0.7-0.4,1.5-0.8,2.4-1s1.9-0.3,2.9-0.3c0.3,0,0.7,0,1,0.1c0.3,0,0.7,0.1,1,0.1c0.3,0.1,0.6,0.1,0.8,0.2c0.2,0,0.4,0.1,0.5,0.1   v-0.9c0-0.5-0.1-1-0.2-1.6c-0.1-0.5-0.3-1-0.6-1.4s-0.7-0.7-1.2-1c-0.5-0.2-1.2-0.4-2-0.4c-1.1,0-2,0.1-2.8,0.2s-1.4,0.3-1.8,0.5   l-0.4-2.6c0.4-0.2,1.1-0.4,2.1-0.5C135.5,17.5,136.5,17.4,137.6,17.4z M137.9,33.5c0.8,0,1.4,0,2-0.1c0.6,0,1.1-0.1,1.5-0.2v-5.3   c-0.2-0.1-0.6-0.2-1.1-0.3c-0.5-0.1-1.1-0.1-1.9-0.1c-0.5,0-1,0-1.5,0.1s-1,0.2-1.5,0.4c-0.4,0.2-0.8,0.5-1.1,0.9s-0.4,0.9-0.4,1.5   c0,1.1,0.4,1.9,1.1,2.4C135.6,33.2,136.6,33.5,137.9,33.5z"/>
	<path class="st3" d="M155.2,36.1c-2,0-3.4-0.5-4.2-1.3s-1.2-2.1-1.2-3.8V9.6L153,9v21.5c0,0.5,0,1,0.1,1.3s0.2,0.6,0.4,0.8   s0.5,0.4,0.8,0.5s0.8,0.2,1.3,0.3L155.2,36.1z"/>
	<path class="st3" d="M158,26.7c0-1.3,0.2-2.5,0.6-3.7c0.4-1.2,1-2.2,1.8-3c0.8-0.9,1.8-1.5,2.9-2c1.1-0.5,2.5-0.8,3.9-0.8   c1,0,1.8,0.1,2.6,0.3c0.8,0.2,1.6,0.4,2.3,0.7l-1.1,4.1c-0.5-0.2-1-0.3-1.6-0.5c-0.6-0.1-1.2-0.2-1.9-0.2c-1.5,0-2.6,0.5-3.4,1.4   c-0.7,0.9-1.1,2.2-1.1,3.7c0,1.6,0.3,2.9,1,3.8s1.9,1.3,3.7,1.3c0.6,0,1.3-0.1,2-0.2s1.4-0.3,2-0.6l0.7,4.2   c-0.6,0.3-1.3,0.5-2.2,0.7s-1.9,0.3-3,0.3c-1.7,0-3.1-0.2-4.3-0.7s-2.2-1.2-2.9-2c-0.8-0.8-1.3-1.9-1.7-3   C158.2,29.3,158,28.1,158,26.7z"/>
	<path class="st3" d="M192.1,26.7c0,1.4-0.2,2.7-0.6,3.9c-0.4,1.2-1,2.2-1.8,3s-1.7,1.5-2.8,1.9c-1.1,0.5-2.3,0.7-3.7,0.7   c-1.3,0-2.5-0.2-3.6-0.7s-2-1.1-2.8-1.9c-0.8-0.8-1.4-1.8-1.8-3c-0.4-1.2-0.7-2.5-0.7-3.9s0.2-2.7,0.7-3.9c0.4-1.2,1.1-2.2,1.9-3   c0.8-0.8,1.7-1.5,2.8-1.9c1.1-0.5,2.3-0.7,3.6-0.7s2.5,0.2,3.6,0.7s2,1.1,2.8,1.9s1.4,1.8,1.8,3C191.9,24,192.1,25.3,192.1,26.7z    M186.9,26.7c0-1.6-0.3-2.8-0.9-3.7c-0.6-0.9-1.5-1.4-2.7-1.4s-2.1,0.5-2.7,1.4c-0.6,0.9-1,2.2-1,3.7s0.3,2.8,1,3.8   c0.6,0.9,1.5,1.4,2.7,1.4s2.1-0.5,2.7-1.4C186.6,29.5,186.9,28.3,186.9,26.7z"/>
	<path class="st3" d="M212.1,35.2c-0.5,0.1-1,0.3-1.6,0.4c-0.6,0.1-1.2,0.2-1.9,0.3s-1.3,0.2-2,0.2c-0.7,0.1-1.3,0.1-1.9,0.1   c-1.5,0-2.8-0.2-4-0.7s-2.2-1.1-3-1.9c-0.8-0.8-1.4-1.8-1.8-3c-0.4-1.2-0.6-2.5-0.6-3.9c0-1.5,0.2-2.8,0.6-4c0.4-1.2,0.9-2.2,1.6-3   c0.7-0.8,1.5-1.5,2.5-1.9s2.1-0.7,3.4-0.7c0.7,0,1.3,0.1,1.9,0.2c0.6,0.1,1.1,0.3,1.7,0.6v-8l5.1-0.8V35.2z M200.5,26.6   c0,1.6,0.4,2.9,1.1,3.8c0.7,1,1.8,1.4,3.2,1.4c0.5,0,0.9,0,1.3-0.1c0.4,0,0.7-0.1,1-0.1v-9.3c-0.3-0.2-0.7-0.4-1.3-0.5   c-0.5-0.1-1-0.2-1.6-0.2C201.7,21.6,200.5,23.3,200.5,26.6z"/>
	<path class="st3" d="M216,26.8c0-1.6,0.2-3,0.7-4.2s1.1-2.2,1.9-3c0.8-0.8,1.7-1.4,2.8-1.8c1-0.4,2.1-0.6,3.2-0.6   c2.6,0,4.6,0.8,6.1,2.4s2.2,3.9,2.2,6.9c0,0.3,0,0.6,0,1s0,0.7-0.1,0.9h-11.6c0.1,1.1,0.6,1.9,1.5,2.5s2,0.9,3.5,0.9   c0.9,0,1.9-0.1,2.8-0.3c0.9-0.2,1.6-0.4,2.2-0.6l0.7,4.2c-0.3,0.1-0.6,0.3-1.1,0.4c-0.5,0.1-1,0.3-1.5,0.4   c-0.6,0.1-1.2,0.2-1.8,0.3s-1.3,0.1-1.9,0.1c-1.6,0-3-0.2-4.3-0.7s-2.2-1.1-3-2c-0.8-0.8-1.4-1.8-1.8-3   C216.2,29.4,216,28.2,216,26.8z M228.1,24.9c0-0.4-0.1-0.9-0.2-1.3c-0.1-0.4-0.3-0.8-0.6-1.1c-0.3-0.3-0.6-0.6-1-0.8   c-0.4-0.2-0.9-0.3-1.5-0.3s-1.1,0.1-1.5,0.3c-0.4,0.2-0.8,0.5-1,0.8c-0.3,0.3-0.5,0.7-0.6,1.1s-0.3,0.9-0.3,1.3H228.1z"/>
	<path class="st3" d="M247.9,22.2c-0.5-0.1-1-0.2-1.6-0.4c-0.6-0.1-1.3-0.2-2-0.2c-0.3,0-0.7,0-1.2,0.1c-0.4,0.1-0.8,0.1-1,0.2v13.8   H237V18.6c0.9-0.3,2-0.6,3.3-0.9s2.6-0.4,4.2-0.4c0.3,0,0.6,0,1,0.1c0.4,0,0.8,0.1,1.2,0.1c0.4,0.1,0.8,0.1,1.2,0.2s0.7,0.2,1,0.3   L247.9,22.2z"/>
</g>
</svg>