<svg xmlns="http://www.w3.org/2000/svg" xmlns:xlink="http://www.w3.org/1999/xlink" viewBox="0 0 642 502">
  <defs>
    <style>
      .cls-1 {
        fill: url(#linear-gradient);
      }

      .cls-2 {
        fill: #f6a382;
      }

      .cls-3 {
        fill: #1e2732;
      }

      .cls-4 {
        fill: #6651a1;
      }

      .cls-5 {
        fill: #e69376;
      }

      .cls-6 {
        fill: url(#linear-gradient-2);
      }

      .cls-7 {
        fill: #561136;
      }

      .cls-8 {
        fill: #151f34;
      }

      .cls-9 {
        fill: #1a2652;
      }

      .cls-10 {
        fill: #e0856e;
      }

      .cls-11 {
        fill: url(#linear-gradient-3);
      }

      .cls-12 {
        fill: url(#linear-gradient-4);
      }

      .cls-13 {
        fill: url(#linear-gradient-5);
      }

      .cls-14 {
        fill: #2c3c70;
      }

      .cls-15 {
        fill: #f79f7d;
      }

      .cls-16 {
        fill: #e98a6f;
      }

      .cls-17 {
        fill: #3b2314;
      }

      .cls-18 {
        fill: #fff;
      }

      .cls-19 {
        fill: url(#linear-gradient-6);
      }

      .cls-20 {
        fill: url(#linear-gradient-7);
      }

      .cls-21 {
        fill: url(#linear-gradient-8);
      }

      .cls-22 {
        isolation: isolate;
      }

      .cls-23 {
        fill: url(#linear-gradient-9);
      }

      .cls-24 {
        fill: url(#linear-gradient-10);
      }

      .cls-25 {
        fill: url(#linear-gradient-11);
      }

      .cls-26 {
        fill: url(#linear-gradient-12);
      }

      .cls-27 {
        fill: #f3b68e;
      }

      .cls-28, .cls-50 {
        opacity: 0.53;
      }

      .cls-28 {
        fill: url(#linear-gradient-13);
      }

      .cls-29 {
        fill: #17181c;
      }

      .cls-30 {
        fill: #104473;
      }

      .cls-31 {
        fill: #065098;
      }

      .cls-32 {
        fill: url(#linear-gradient-14);
      }

      .cls-33 {
        fill: #260f00;
      }

      .cls-34 {
        fill: url(#linear-gradient-15);
      }

      .cls-35 {
        fill: url(#linear-gradient-16);
      }

      .cls-36 {
        fill: url(#linear-gradient-17);
      }

      .cls-37 {
        fill: url(#linear-gradient-18);
      }

      .cls-38 {
        fill: url(#linear-gradient-19);
      }

      .cls-39 {
        fill: url(#linear-gradient-20);
      }

      .cls-40 {
        fill: url(#linear-gradient-21);
      }

      .cls-41 {
        fill: #f7b68d;
      }

      .cls-42 {
        fill: #dc9d7e;
      }

      .cls-43 {
        fill: #e6e7e8;
      }

      .cls-44 {
        fill: #340e07;
      }

      .cls-45 {
        fill: url(#linear-gradient-22);
      }

      .cls-46 {
        fill: url(#linear-gradient-23);
      }

      .cls-47 {
        fill: url(#linear-gradient-24);
      }

      .cls-48 {
        fill: url(#linear-gradient-25);
      }

      .cls-49 {
        fill: url(#linear-gradient-26);
      }

      .cls-50 {
        fill: url(#linear-gradient-27);
      }

      .cls-51 {
        fill: #4f1531;
      }

      .cls-52 {
        fill: url(#linear-gradient-28);
      }

      .cls-53 {
        fill: url(#linear-gradient-29);
      }

      .cls-54 {
        fill: url(#linear-gradient-30);
      }

      .cls-55 {
        fill: url(#linear-gradient-31);
      }

      .cls-56 {
        fill: url(#linear-gradient-32);
      }

      .cls-57 {
        fill: url(#linear-gradient-33);
      }

      .cls-58 {
        fill: url(#linear-gradient-34);
      }

      .cls-59 {
        fill: url(#linear-gradient-35);
      }

      .cls-60 {
        fill: url(#linear-gradient-36);
      }

      .cls-61 {
        fill: url(#linear-gradient-37);
      }

      .cls-62 {
        fill: url(#linear-gradient-38);
      }

      .cls-63 {
        fill: url(#linear-gradient-39);
      }

      .cls-64 {
        fill: url(#linear-gradient-40);
      }

      .cls-65 {
        fill: url(#linear-gradient-41);
      }

      .cls-66 {
        fill: url(#linear-gradient-42);
      }

      .cls-67 {
        fill: #007fa2;
      }

      .cls-68 {
        fill: url(#linear-gradient-43);
      }

      .cls-69 {
        fill: url(#linear-gradient-44);
      }

      .cls-70 {
        fill: url(#linear-gradient-45);
      }

      .cls-71 {
        fill: url(#linear-gradient-46);
      }

      .cls-72 {
        fill: #3f1900;
      }

      .cls-73 {
        fill: url(#linear-gradient-47);
      }

      .cls-74 {
        fill: url(#linear-gradient-48);
      }

      .cls-75 {
        fill: url(#linear-gradient-49);
      }

      .cls-76 {
        fill: #030308;
      }

      .cls-77 {
        fill: url(#linear-gradient-50);
      }

      .cls-78 {
        fill: url(#linear-gradient-51);
      }
    </style>
    <linearGradient id="linear-gradient" x1="369.1" y1="288.6" x2="149.1" y2="297.93" gradientUnits="userSpaceOnUse">
      <stop offset="0" stop-color="#0037d4"/>
      <stop offset="1" stop-color="#fff"/>
    </linearGradient>
    <linearGradient id="linear-gradient-2" x1="238.14" y1="154.27" x2="226.64" y2="221.27" gradientUnits="userSpaceOnUse">
      <stop offset="0" stop-color="#3f0027"/>
      <stop offset="1" stop-color="#fff"/>
    </linearGradient>
    <linearGradient id="linear-gradient-3" x1="240.44" y1="95.17" x2="206.44" y2="238.51" xlink:href="#linear-gradient-2"/>
    <linearGradient id="linear-gradient-4" x1="225.86" y1="74.41" x2="249.86" y2="61.24" gradientUnits="userSpaceOnUse">
      <stop offset="0" stop-color="#00152a"/>
      <stop offset="1" stop-color="#fff"/>
    </linearGradient>
    <linearGradient id="linear-gradient-5" x1="193.88" y1="131.29" x2="208.38" y2="136.96" xlink:href="#linear-gradient-2"/>
    <linearGradient id="linear-gradient-6" x1="222.27" y1="90.86" x2="188.27" y2="234.19" xlink:href="#linear-gradient-2"/>
    <linearGradient id="linear-gradient-7" x1="225.9" y1="91.72" x2="191.9" y2="235.06" xlink:href="#linear-gradient-2"/>
    <linearGradient id="linear-gradient-8" x1="243.73" y1="70.48" x2="199.88" y2="72.34" xlink:href="#linear-gradient-4"/>
    <linearGradient id="linear-gradient-9" x1="290.77" y1="162.15" x2="359.97" y2="162.15" gradientUnits="userSpaceOnUse">
      <stop offset="0" stop-color="#0081bf"/>
      <stop offset="1" stop-color="#fff"/>
    </linearGradient>
    <linearGradient id="linear-gradient-10" x1="202.28" y1="166.82" x2="290.95" y2="166.82" xlink:href="#linear-gradient-9"/>
    <linearGradient id="linear-gradient-11" x1="202.46" y1="133.24" x2="359.97" y2="133.24" xlink:href="#linear-gradient-9"/>
    <linearGradient id="linear-gradient-12" x1="164.26" y1="232.01" x2="98.26" y2="510.01" gradientUnits="userSpaceOnUse">
      <stop offset="0" stop-color="#ff7655"/>
      <stop offset="1" stop-color="#fff"/>
    </linearGradient>
    <linearGradient id="linear-gradient-13" x1="450.33" y1="336.5" x2="649" y2="336.5" gradientUnits="userSpaceOnUse">
      <stop offset="0" stop-color="#0037d4"/>
      <stop offset="1" stop-color="#fff" stop-opacity="0"/>
    </linearGradient>
    <linearGradient id="linear-gradient-14" x1="478.61" y1="48.94" x2="435.28" y2="194.94" gradientUnits="userSpaceOnUse">
      <stop offset="0" stop-color="#862952"/>
      <stop offset="1" stop-color="#fff"/>
    </linearGradient>
    <linearGradient id="linear-gradient-15" x1="511.6" y1="58.73" x2="468.26" y2="204.73" xlink:href="#linear-gradient-14"/>
    <linearGradient id="linear-gradient-16" x1="527.12" y1="63.34" x2="483.79" y2="209.34" xlink:href="#linear-gradient-14"/>
    <linearGradient id="linear-gradient-17" x1="532.29" y1="64.87" x2="488.96" y2="210.87" xlink:href="#linear-gradient-14"/>
    <linearGradient id="linear-gradient-18" x1="388.3" y1="163.03" x2="406.32" y2="163.03" gradientUnits="userSpaceOnUse">
      <stop offset="0" stop-color="#006a42"/>
      <stop offset="1" stop-color="#fff"/>
    </linearGradient>
    <linearGradient id="linear-gradient-19" x1="335.62" y1="205.15" x2="405.96" y2="205.15" xlink:href="#linear-gradient-18"/>
    <linearGradient id="linear-gradient-20" x1="405.78" y1="209.9" x2="495.9" y2="209.9" xlink:href="#linear-gradient-18"/>
    <linearGradient id="linear-gradient-21" x1="335.62" y1="175.77" x2="495.71" y2="175.77" xlink:href="#linear-gradient-18"/>
    <linearGradient id="linear-gradient-22" x1="385.9" y1="265.97" x2="403.63" y2="265.97" gradientUnits="userSpaceOnUse">
      <stop offset="0" stop-color="#cd00d4"/>
      <stop offset="1" stop-color="#fff"/>
    </linearGradient>
    <linearGradient id="linear-gradient-23" x1="305.61" y1="270.89" x2="326.51" y2="270.89" xlink:href="#linear-gradient-22"/>
    <linearGradient id="linear-gradient-24" x1="297.77" y1="312.09" x2="386.44" y2="312.09" xlink:href="#linear-gradient-22"/>
    <linearGradient id="linear-gradient-25" x1="386.26" y1="307.41" x2="455.46" y2="307.41" xlink:href="#linear-gradient-22"/>
    <linearGradient id="linear-gradient-26" x1="297.95" y1="278.51" x2="455.46" y2="278.51" xlink:href="#linear-gradient-22"/>
    <linearGradient id="linear-gradient-27" x1="813.78" y1="502.83" x2="338.45" y2="486.83" xlink:href="#linear-gradient"/>
    <linearGradient id="linear-gradient-28" x1="488.21" y1="236.27" x2="456.21" y2="498.27" gradientUnits="userSpaceOnUse">
      <stop offset="0"/>
      <stop offset="1" stop-color="#fff"/>
    </linearGradient>
    <linearGradient id="linear-gradient-29" x1="490.14" y1="236.51" x2="458.14" y2="498.51" xlink:href="#linear-gradient-28"/>
    <linearGradient id="linear-gradient-30" x1="502.33" y1="238" x2="470.33" y2="500" xlink:href="#linear-gradient-28"/>
    <linearGradient id="linear-gradient-31" x1="465.83" y1="233.54" x2="433.83" y2="495.54" xlink:href="#linear-gradient-28"/>
    <linearGradient id="linear-gradient-32" x1="469.92" y1="234.04" x2="437.92" y2="496.04" xlink:href="#linear-gradient-28"/>
    <linearGradient id="linear-gradient-33" x1="478.85" y1="235.13" x2="446.85" y2="497.13" xlink:href="#linear-gradient-28"/>
    <linearGradient id="linear-gradient-34" x1="466.63" y1="233.64" x2="434.63" y2="495.64" xlink:href="#linear-gradient-28"/>
    <linearGradient id="linear-gradient-35" x1="502.33" y1="196.09" x2="424.33" y2="405.42" gradientUnits="userSpaceOnUse">
      <stop offset="0" stop-color="#aa4200"/>
      <stop offset="1" stop-color="#fff"/>
    </linearGradient>
    <linearGradient id="linear-gradient-36" x1="264.43" y1="225.22" x2="279.2" y2="225.22" gradientUnits="userSpaceOnUse">
      <stop offset="0" stop-color="#0400ff"/>
      <stop offset="1" stop-color="#fff"/>
    </linearGradient>
    <linearGradient id="linear-gradient-37" x1="257.96" y1="228.58" x2="264.61" y2="228.58" xlink:href="#linear-gradient-36"/>
    <linearGradient id="linear-gradient-38" x1="197.05" y1="268.04" x2="287.17" y2="268.04" xlink:href="#linear-gradient-36"/>
    <linearGradient id="linear-gradient-39" x1="257.96" y1="228.03" x2="276.41" y2="228.03" xlink:href="#linear-gradient-36"/>
    <linearGradient id="linear-gradient-40" x1="126.89" y1="263.29" x2="197.24" y2="263.29" xlink:href="#linear-gradient-36"/>
    <linearGradient id="linear-gradient-41" x1="126.89" y1="233.91" x2="286.99" y2="233.91" xlink:href="#linear-gradient-36"/>
    <linearGradient id="linear-gradient-42" x1="136.82" y1="225.5" x2="70.82" y2="503.5" xlink:href="#linear-gradient-12"/>
    <linearGradient id="linear-gradient-43" x1="137.22" y1="225.59" x2="71.22" y2="503.59" xlink:href="#linear-gradient-12"/>
    <linearGradient id="linear-gradient-44" x1="225.9" y1="73.6" x2="-128.1" y2="464.6" gradientUnits="userSpaceOnUse">
      <stop offset="0" stop-color="#0019d4"/>
      <stop offset="1" stop-color="#fff"/>
    </linearGradient>
    <linearGradient id="linear-gradient-45" x1="149.18" y1="228.43" x2="83.18" y2="506.43" xlink:href="#linear-gradient-12"/>
    <linearGradient id="linear-gradient-46" x1="242.57" y1="88.69" x2="-111.43" y2="479.69" xlink:href="#linear-gradient-44"/>
    <linearGradient id="linear-gradient-47" x1="267.48" y1="111.25" x2="-86.52" y2="502.25" xlink:href="#linear-gradient-44"/>
    <linearGradient id="linear-gradient-48" x1="254.96" y1="99.91" x2="-99.04" y2="490.91" xlink:href="#linear-gradient-44"/>
    <linearGradient id="linear-gradient-49" x1="502.13" y1="428.37" x2="10.13" y2="443.37" xlink:href="#linear-gradient"/>
    <linearGradient id="linear-gradient-50" x1="152.2" y1="229.15" x2="86.2" y2="507.15" xlink:href="#linear-gradient-12"/>
    <linearGradient id="linear-gradient-51" x1="204.97" y1="241.68" x2="138.97" y2="519.68" xlink:href="#linear-gradient-12"/>
  </defs>
  <title>bengalcoder-hero-image</title>
  <g id="Layer_2" data-name="Layer 2">
    <g id="Layer_1-2" data-name="Layer 1">
      <g id="Community_Vector" data-name="Community Vector">
        <path class="cls-1" d="M233.38,296.5c0,5.8-22.63,10.5-50.54,10.5s-50.54-4.7-50.54-10.5S154.93,286,182.84,286,233.38,290.7,233.38,296.5Z"/>
        <path class="cls-2" d="M211.92,46.82h16.44c-.74-2.39-2.29-8.59.11-12.81l-16.61-10.9S214.81,41.41,211.92,46.82Z"/>
        <path class="cls-2" d="M197.32,208.66C189,224.05,187.5,230.32,186,242c-.86,6.81-.58,35.49-1.47,39.76-.37,1.78,6.37.8,6.37.8,1.23-3,20.86-68.89,20.86-68.89s2.19-6.82.37-8C203,199.72,201,202,197.32,208.66Z"/>
        <path class="cls-3" d="M191.12,284c1.23-3,20.66-70.27,20.66-70.27s2.19-6.82.37-8c-9.15-6-11.2-3.73-14.83,3C189,224.05,187.5,230.32,186,242c-.86,6.81-2.27,34.5-3.16,38.78C182.86,280.8,187.84,286.74,191.12,284Z"/>
        <path class="cls-3" d="M234.74,97.33s6.4,27.12,5.54,30.08c-2.47,8.53-25.46,20.5-46.42,3,0,0,4.79-20,14.74-37C208.6,93.43,212.26,97.21,234.74,97.33Z"/>
        <path class="cls-4" d="M231.47,42.23s8.39,16.21,12.13,25.1c-1.57,10.43-7.23,25.89-9.51,29.15-5,7.15-27.79.77-27.79.77l-6.58-22c19.19-6.89,9.09-27.11,9.09-27.11l3-1.9s3.07,9.94,15.56,9.59c0,0,4.11-2.67,1.09-14A18,18,0,0,1,231.47,42.23Z"/>
        <path class="cls-5" d="M210.6,134.71s2.21,43.75,10.3,67.27c1.2,3.51,15-1.15,15-1.15s7-37.64,6.56-53.23c-.23-8.82-3.39-27.82-3.39-27.82S213.17,116.39,210.6,134.71Z"/>
        <path class="cls-5" d="M221.3,201.83l14.63-1s-9,74.68-9.81,77.82c0,0-6.29,2.27-6.16.46.3-4.36-5-37.87-5.11-44.73C214.6,223.36,215,216.39,221.3,201.83Z"/>
        <path class="cls-6" d="M227.94,279.11c1.48-2.88,8-78.28,8-78.28l-14.63,1c-6.27,14.56-6.7,21.53-6.45,32.55.16,6.86,3.49,40.37,3.18,44.73C218,279.11,226,282.9,227.94,279.11Z"/>
        <path class="cls-2" d="M192.7,138.37s.17,43.76,5.94,68c.86,3.61,14,2.5,14,2.5s8.61-41.38,9.7-56.94c.62-8.8,2.38-24.19,2.38-24.19S193.9,124.64,192.7,138.37Z"/>
        <path class="cls-2" d="M226.28,94.1c1.22-.22,7.81,2.38,7.81,2.38s4.74,20.23,5,23.3-20.87,19-44.49,9.93c0,0,11.93-28.14,13.67-34C210.28,88.94,226.28,94.1,226.28,94.1Z"/>
        <g>
          <g>
            <polygon class="cls-7" points="217.45 295.39 218.28 295.24 219.1 288.28 216.93 285.7 217.45 295.39"/>
            <g>
              <polygon class="cls-8" points="216.45 294.82 217.45 295.39 217.29 284 215.53 283.6 216.45 294.82"/>
              <g>
                <path class="cls-5" d="M224.11,280.49l1.85,6.1s2.51,5.89,4.59,8.21c0,0,3.74,5.13-3.26,4.79,0,0-7.48-.4-7.37-5.19.1-4.13-3.69-9.25-3.69-9.25a4.18,4.18,0,0,1,.49-4.92l1.3-1.48,6.28-1.1Z"/>
                <path class="cls-8" d="M231,296.69a9.43,9.43,0,0,1-8.14-2.46c-1.94-1.92-4.16-8.92-3.42-6.59.3,1-2-7.56-1.37-8.89l-1.3,1.48a4.37,4.37,0,0,0-.62,5.06s3.92,5,3.82,9.11c-.11,4.79,7.37,5.19,7.37,5.19,4.2.21,4.53-1.56,4.13-3A3.23,3.23,0,0,1,231,296.69Z"/>
                <path class="cls-8" d="M234.48,298.74s1.05,2-2.3,2c0,0-12.54-.8-12.53-6.19v-4.34s1,6.2,8.73,6.21c0,0,3.44,0,1.67-2.19Z"/>
              </g>
            </g>
          </g>
          <path class="cls-9" d="M214.29,8.35A8.35,8.35,0,1,1,205.94,0,8.35,8.35,0,0,1,214.29,8.35Z"/>
          <path class="cls-10" d="M213.77,36.49c1,2.52,2.57,3.74,5.17,4.57a17.26,17.26,0,0,0,8.35.61A13,13,0,0,1,228.47,34l-16.61-10.9s.89,5.58,1.22,11.49C213.3,35.23,213.52,35.86,213.77,36.49Z"/>
          <path class="cls-2" d="M231.63,37.82l.87-2.47,2.13-7.28a7.43,7.43,0,0,0,0-3.86,11.6,11.6,0,0,1-.34-6c1.35-6.62-1.59-10.07-1.59-10.07C228.88,2,219.76,2,219.76,2c-11.27.59-12.19,11.5-12.19,11.5-1.81,7.27,4,13.3,4,13.31.73.76.81,2,1.16,2.94a9,9,0,0,0,1.66,2.76,20,20,0,0,0,5.78,4.64,22.22,22.22,0,0,0,8.69,2.05C230,39.23,231.13,39.24,231.63,37.82Z"/>
          <g>
            <polygon class="cls-7" points="179 296.7 179.84 296.82 182.86 290.49 181.62 287.35 179 296.7"/>
            <g>
              <polygon class="cls-8" points="178.24 295.84 179 296.7 182.51 285.86 180.97 284.91 178.24 295.84"/>
              <g>
                <path class="cls-2" d="M190.1,284.72c-.17,5.09-.55,10.8,1.51,15.62,0,0,1.9,6.07-4.63,3.49,0,0-7-2.77-5.31-7.28,1.42-3.87-.53-9.94-.53-9.94a4.16,4.16,0,0,1,2-4.5l1.7-1h6.54Z"/>
                <path class="cls-8" d="M191.38,302.27a9.43,9.43,0,0,1-6.92-4.95c-1.23-2.44-1.08-9.78-1.13-7.34,0,1,.55-7.8,1.55-8.86l-1.7,1A4.36,4.36,0,0,0,181,286.7s2.12,6,.7,9.85c-1.65,4.51,5.31,7.28,5.31,7.28,3.92,1.55,4.8,0,4.88-1.52Z"/>
                <path class="cls-8" d="M194.06,305.34s.36,2.22-2.81,1.15c0,0-11.63-4.78-9.89-9.88l1.39-4.11s-1.06,6.18,6.27,8.68c0,0,3.26,1.1,2.28-1.54Z"/>
              </g>
            </g>
          </g>
          <path class="cls-11" d="M210.6,134.71s2.21,43.75,10.3,67.27c1.2,3.51,15-1.15,15-1.15s7-37.64,6.56-53.23c-.23-8.82-3.39-27.82-3.39-27.82S213.17,116.39,210.6,134.71Z"/>
          <g>
            <path class="cls-5" d="M258,95.34,246.85,55.1c-4-10.76-9.95-11-9.95-11-11.43,1.73-4.11,21.78-4.11,21.78l14.1,33.42"/>
            <g>
              <path class="cls-5" d="M290.11,125.39c-4.8-3.56-5.13-4.52-5.85-6-3.13-6.21,4.85-4.85,6.8-4.1,1.11.44.78,3.2,3.87,7.09,0,0,5.15,4.11,6.58,4.08,0,0,1.41.42,1.26,1.46C302.77,128,298.46,129.71,290.11,125.39Z"/>
              <path class="cls-5" d="M257.09,93l32.5,24.58c.9,4.48-1.16,4.81-1.16,4.81l-26.21-11.93C251,105.6,247.09,100,247.09,100s-4.59-4.3,2.72-8.61C249.81,91.4,253.12,89.5,257.09,93Z"/>
              <path class="cls-5" d="M290.13,115.05s-1.42,2.75,2.29,2.57l3.94-2.17a1.4,1.4,0,0,0,.95-1.53s-.34-.66-1.55-.23Z"/>
            </g>
          </g>
          <path class="cls-2" d="M199.08,53.45c-6.73,4.92-3.29,12.32-3.29,12.32L208.5,96.62s20.6,7,25.59-.14c2.28-3.26,4.39-11.91,7.15-24.38,1.88-8.48,2-23.29-2.76-27.68-2.76-2.53-11.67-2.48-11.73-2.78l-14.43,4.65Z"/>
          <path class="cls-12" d="M237.75,54.74s7,8.21,7.56,14.31c.33,3.39-4,9.08-6.11,11.17C237.68,81.71,228.68,60.4,237.75,54.74Z"/>
          <path class="cls-13" d="M200.4,123s-8.33,1.85-7.58,17.12c.73,14.91,27.88,18,31.36,3C227.93,126.94,215.22,117.46,200.4,123Z"/>
          <path class="cls-14" d="M212.82,31.06c-.06-5.15.07-4.84.07-4.84.12-1.5,3.07,1.74,3-.22-.28-9,3-13.24,4.26-13.93a15.81,15.81,0,0,1,10-1.9c4.54.81,4.37,6.85,4.37,6.85,3.86-22.11-20.79-15-20.79-15A13.65,13.65,0,0,0,203,16.44c-1.48,12.15,10,19.18,10,19.18Z"/>
          <g>
            <path class="cls-15" d="M213.61,29.3a2.39,2.39,0,0,1-1.57.48,3.55,3.55,0,0,1-3.23-3.65,3.26,3.26,0,0,1,3.08-3.55,3.08,3.08,0,0,1,2.16,1,4.42,4.42,0,0,1,.67,3.61A3.34,3.34,0,0,1,213.61,29.3Z"/>
            <g>
              <path class="cls-16" d="M212.59,24.43c-.1-1-2.21,0-1.89.55a3.49,3.49,0,0,0,.85.82,1.56,1.56,0,0,1,.65,1.14c0,.06,0,.24,0,.28-.27.19-1.17-.83-1.36-1a1.73,1.73,0,0,1-.25-1.67,1,1,0,0,1,1.15-.78c.48,0,1,.06.93.65,0,0,0,.11,0,.05Z"/>
              <path class="cls-16" d="M211.92,25.52c.22-.22.43,0,.65.12a1,1,0,0,1,.38.61,2.48,2.48,0,0,1-.26,1.75,1.31,1.31,0,0,1-1.13.6c-.64,0-.83-.58-.85-1.12,0-.14,0-.48.12-.57s.26.14.36.24a.88.88,0,0,0,.54.2,1.13,1.13,0,0,0,.94-.42.54.54,0,0,0,.1-.16c0,.35,0,.43-.05.23a.9.9,0,0,0-.12-.24c-.15-.25-.4-.41-.56-.65s-.23-.48-.12-.59Z"/>
            </g>
          </g>
          <g>
            <path class="cls-17" d="M223.61,21.62c.06.63-.24,1.17-.66,1.21s-.82-.43-.88-1.06.24-1.16.66-1.2S223.55,21,223.61,21.62Z"/>
            <path class="cls-17" d="M232.28,20.46c0,.62-.3,1.14-.73,1.16s-.79-.48-.81-1.11.3-1.15.73-1.16S232.26,19.83,232.28,20.46Z"/>
            <path class="cls-14" d="M219.87,20.78c1.63-1.71,5.47-1.57,5.47-1.57s.25,0,.18-.8c0,0,0-.69-.57-.62C225,17.79,220.07,17.47,219.87,20.78Z"/>
            <path class="cls-14" d="M234.48,17.51c-1.7-1.38-4.83-.31-4.83-.31-.55.08-.39.75-.39.75.14.78.39.72.39.72a10.59,10.59,0,0,1,4.62-.33C234.34,18.07,234.42,17.79,234.48,17.51Z"/>
            <path class="cls-18" d="M231.18,29.55,225,30.69c-.33.06-.45.25-.28.42,0,0,1.78,1.78,3.78,1.41s3-2.68,3-2.68C231.6,29.64,231.45,29.53,231.18,29.55Z"/>
            <path class="cls-16" d="M226.75,27.6c3.24-.23,3.41-1.08,3.41-1.08l-1.69-3.41S228.86,26.52,226.75,27.6Z"/>
          </g>
          <path class="cls-19" d="M192.7,138.37s.17,43.76,5.94,68c.86,3.61,14,2.5,14,2.5s8.61-41.38,9.7-56.94c.62-8.8,2.38-24.19,2.38-24.19S193.9,124.64,192.7,138.37Z"/>
          <path class="cls-20" d="M234.74,97.33s6.4,27.12,5.54,30.08c-2.47,8.53-25.46,20.5-46.42,3,0,0,4.79-20,14.74-37C208.6,93.43,212.26,97.21,234.74,97.33Z"/>
          <path class="cls-21" d="M206.3,97.25s23.45,7.23,28.44.08c2.27-3.26,7.29-19.57,8.86-30-3.74-8.89-12.13-25.1-12.13-25.1a18,18,0,0,0-3-.36c3,11.34-1.09,14-1.09,14-12.49.35-15.56-9.59-15.56-9.59l-3,1.9s9.3,19.33-8.66,28.16C200.15,76.35,199.72,97.09,206.3,97.25Z"/>
          <path class="cls-18" d="M213.69,29.67a1.07,1.07,0,1,1-1.07-1.07A1.07,1.07,0,0,1,213.69,29.67Z"/>
          <g>
            <path class="cls-2" d="M209.16,56.27a9.65,9.65,0,0,1-.42,13.63c-3.88,3.65-16.07,10.61-16.19,5.28-.22-10.46.19-16.15,4.07-19.79S205.51,52.39,209.16,56.27Z"/>
            <path class="cls-2" d="M209.59,65.12l-8.42-4.86-8.47,5.3s-5,31.58-3.13,38.81c1.94,7.7,5.48,2,7.15-.08C196.72,104.29,210.54,71.26,209.59,65.12Z"/>
            <path class="cls-2" d="M190.85,107.45s15.15,10.82,28.6,16.7c0,0,4.44-1.86,2.22-3.91-3.77-3.49-20.27-19.29-24.08-22.78C190.85,95.15,190.85,107.45,190.85,107.45Z"/>
            <g>
              <path class="cls-2" d="M227.11,130.2c-5.48-2.37-6-3.24-7.06-4.48-4.47-5.33,3.61-5.83,5.68-5.54,1.19.16,1.49,2.93,5.39,6,0,0,6,2.82,7.34,2.46,0,0,1.47.09,1.56,1.14C240,129.79,236.23,132.48,227.11,130.2Z"/>
              <path class="cls-2" d="M225.48,120.11s-2.35,2,1.16,3.25l4.45-.54s1.26.05,1.46-1.06c0,0-.06-.74-1.35-.8Z"/>
            </g>
          </g>
          <g class="cls-22">
            <path class="cls-23" d="M320.42,159.4l-.2-.05-.31-.06-.22,0-.21,0-.15,17.25-28.56,19.27.18-20.58,23.66-16c-.35,0-.7.08-1.05.14l-.23,0-.41.07-.27.06-.39.08-.25.06-.62.14-.16.05c-.26.06-.51.13-.77.21l-.13,0c-.36.1-.71.21-1.06.33l0,0-1.05.38-.07,0c-.39.16-.78.32-1.17.5l-.05,0c-.39.17-.78.36-1.15.56h0c-.38.2-.76.41-1.13.63h0c-.37.22-.73.45-1.09.69-3.15,2.12-4.81,4.51-4.83,6.55l.18-20.58c0-2,1.68-4.42,4.83-6.55.36-.24.72-.47,1.09-.69h0c.37-.22.75-.43,1.13-.63h0c.37-.2.76-.38,1.15-.56l.05,0,1.17-.49h0l.07,0,1-.38,0,0c.34-.12.69-.22,1-.33l.09,0h.06c.25-.08.5-.15.76-.21l.17-.05.61-.14.12,0,.14,0,.37-.08.29-.06.38-.07.2,0h.05c.35-.06.7-.1,1.05-.15H315l.9-.09H316l.84,0h1l.75,0h.08c.26,0,.51.05.76.09h.14l.29,0,.24,0,.28.06.19,0h0c.22.05.43.11.64.18l.15.05c.21.07.42.14.61.22l.45.22.12.07.15.08.12.08.15.1.22.16.13.1,0,0a1.7,1.7,0,0,1,.24.22l0,0,.17.18h0l.05.06.07.09c.06.06.11.13.16.19a.61.61,0,0,0,.07.1l0,0a.36.36,0,0,0,.07.1l.12.2s.05.09.08.14a2,2,0,0,1,.11.2l0,.06,0,.06c.06.12.12.23.17.35l0,.06c.07.15.13.31.2.47l.13.31s.05.09.07.14.12.27.19.4a2,2,0,0,0,.11.2l.05.11.19.3.14.2.2.26.09.12c.1.12.2.24.31.35l0,0a3.85,3.85,0,0,0,.35.35.52.52,0,0,0,.11.1l.27.25.14.12.3.23.14.1a5.46,5.46,0,0,0,.47.31l0,0,0,0h0l.07,0,.05,0,.08,0,.06,0,.1.05.08,0,.1.05.12.06.07,0,.15.07.07,0,.24.11c.54.24,1.17.5,1.77.7L360,128.57l-.18,20.58-28.58,19.29c-.6-.2-1.23-.46-1.78-.7l-.23-.11,0,0-.18-.08-.06,0-.14-.06a.2.2,0,0,0-.08,0l-.1-.05-.06,0-.09,0-.05,0-.08,0,0,0-.06,0h0l0,0h0l-.46-.31-.14-.1-.29-.23-.08-.06-.07-.06-.27-.24-.12-.11-.34-.35h0l0,0-.3-.35-.09-.12-.2-.27-.05-.06-.09-.13-.19-.3-.07-.14-.09-.16h0c-.07-.13-.14-.27-.2-.41a.37.37,0,0,0-.05-.11c-.05-.13-.1-.25-.16-.37l-.18-.43,0-.07-.15-.33a.91.91,0,0,1-.07-.14l-.11-.19-.08-.15-.13-.19a.71.71,0,0,0-.1-.14l-.06-.1c-.05-.06-.1-.13-.16-.19l-.08-.09-.22-.24s0,0,0,0l-.28-.25-.13-.09-.22-.16-.15-.1-.27-.16-.12-.07-.45-.22c-.19-.08-.4-.15-.61-.22l-.15,0C320.85,159.51,320.64,159.45,320.42,159.4Z"/>
            <path class="cls-24" d="M202.28,158.5l.18-20.58,36.65,15.42L239,170.46h0l.24,0,.87.09h.09l.62,0h.24l.47,0h.17c.37,0,.74,0,1.09,0h.14l.88,0h.06l.79-.07.19,0,.65-.08.07,0c.23,0,.45-.08.67-.13l.16,0,.6-.16.08,0,.12,0,.31-.1.15,0,.26-.1.14-.06.24-.11.14-.06.24-.13.11-.06.32-.2a3.69,3.69,0,0,0,1.61-3.36v-1a4.58,4.58,0,0,1,.75-2.9,17.65,17.65,0,0,1,2.86-2.18L291,175.15l-.18,20.58-36.61-15.41a17.65,17.65,0,0,0-2.86,2.18,4.2,4.2,0,0,0-.74,2.59c0,.34,0,.67,0,1a3.87,3.87,0,0,1-1.62,3.67l-.32.2-.12.06-.23.12-.14.07-.24.11-.14.06-.08,0-.18.07-.15.05-.31.1-.12,0h-.08l-.6.16-.09,0h-.07l-.67.13h-.06l-.66.09-.1,0h-.09l-.79.07h-.07l-.87,0h-1.4l-.47,0h-.24l-.67-.05h0l-.88-.09-.23,0-.78-.11h-.13l-.73-.12-.12,0-.62-.11-.27-.06-.47-.09-.31-.07-.44-.1-.12,0-.1,0-1.19-.31-.16-.05q-.6-.16-1.2-.36l-.12,0-1.23-.43-.07,0c-.42-.15-.84-.32-1.26-.49l-.59-.26-.81-.38-.27-.13-.51-.26-.29-.16-.44-.24-.28-.16a1,1,0,0,0-.17-.1l-.26-.17-.24-.14-.47-.32-.15-.1-.58-.42-.13-.11-.32-.26-.06,0c-.14-.11-.26-.22-.39-.34l-.16-.15c-.17-.16-.34-.32-.49-.49h0c-.13-.15-.26-.29-.37-.43a1.71,1.71,0,0,0-.11-.14l-.18-.24,0-.06-.08-.12-.18-.31-.07-.12a.43.43,0,0,0,0-.07c-.06-.11-.1-.21-.15-.32l0-.05a2,2,0,0,1-.08-.22.74.74,0,0,1,0-.14l0-.07c0-.11-.05-.21-.07-.32a.13.13,0,0,0,0-.06v-.07a2,2,0,0,1,0-.35v0q.06-7.32.13-14.64Z"/>
            <path class="cls-25" d="M360,128.57,271.49,91.34l-69,46.58,36.65,15.42a15.39,15.39,0,0,1-2.47,1.61,20.12,20.12,0,0,1-4.52,1.31c-3.08.57-6.86.48-9.06,2-3.43,2.32-.73,6.52,6,9.54l.59.26c7.2,3,15.89,3.55,19.43,1.16,2.87-1.94.66-5,2.37-7.26a17.65,17.65,0,0,1,2.86-2.18L291,175.15l28.56-19.27-.37-.17a33.8,33.8,0,0,0-3.76-1.38c-4.26-.93-10,.2-13.7-1.35-4.51-2-3.59-6.56,2-10.3s13.83-5.31,18.36-3.41c2.81,1.25,2.7,3.23,3.79,4.84a8.46,8.46,0,0,0,2.54,2.42c.13.08.64.34,1.29.63s1.17.5,1.77.7Z"/>
          </g>
        </g>
        <path class="cls-26" d="M167.91,354c-2.29-22.3-18.17-79.18-18.17-79.18s-4.64-4.27-17.79-.93-14.61,20.5-14.88,19.45c0,0,15.3,36,35.66,67.73C152.73,361.09,162.56,366.12,167.91,354Z"/>
        <rect class="cls-27" x="456.04" y="231.32" width="14.93" height="15.87"/>
        <g>
          <path class="cls-28" d="M471.37,336.5c0,7.46,38.2,13.5,85.32,13.5S642,344,642,336.5,603.8,323,556.69,323,471.37,329,471.37,336.5Z"/>
          <g>
            <path class="cls-29" d="M485.89,334.43c-3.57,3.6-9.46,5.51-9.46,5.52a8.07,8.07,0,0,1-7.88-2,1.51,1.51,0,0,1,.23-2.31c10.46-8,13.59-10.21,13.59-10.21H492a21.94,21.94,0,0,1,.21,5.42,8.35,8.35,0,0,1-5.27,3.19c-.2,0-.57-.26-.76-.18Z"/>
            <path d="M468.74,335.63a2.52,2.52,0,0,0,.2.66c.81,1.74,3.07,2.46,4.86,2.43,2.15,0,4.1-1.08,6-2a26.32,26.32,0,0,0,5-3.36,15,15,0,0,1,3.75-1.87,18.79,18.79,0,0,0,3.77-2.55c0,1-.06,1.9-.06,1.9a8.35,8.35,0,0,1-5.27,3.19c-.2,0-.57-.26-.76-.18l-.27.61c-3.57,3.6-9.46,5.51-9.46,5.52a8.07,8.07,0,0,1-7.88-2A1.5,1.5,0,0,1,468.74,335.63Z"/>
          </g>
          <g>
            <path class="cls-5" d="M493,247.51c-10.68,11.79-14.92-.69-14.92-.69l-1.32-72.47c-.14,1.08-.49-7.31,13-5.5s16.85,7.06,16.85,7.06-7.4,50.06-13.6,71.6"/>
            <path class="cls-5" d="M478.06,245.91s5.42,76.33,5.86,79c0,0,6.58,1.46,6.61-.06.08-3.65,7.6-48.32,7.7-54.06.24-14.55-3.51-17.3-7.25-27.1C491,243.69,478,234.12,478.06,245.91Z"/>
          </g>
          <path class="cls-30" d="M496.25,250.25c6.21-21.54,10.39-74.34,10.39-74.34s-3.41-5.24-16.85-7.06-13.13,6.58-13,5.5c0,0-4.08,39.3-.34,75C476.46,249.37,488,255.49,496.25,250.25Z"/>
          <path class="cls-2" d="M516.63,135.47c1.91,6.78,9.77,32.66,9.77,32.66-28.15,33.68-49.35,4.21-49.63,1.14-.34-3.68,3.76-17.71,4.51-32.85C481.28,136.42,489,124.6,516.63,135.47Z"/>
          <path class="cls-30" d="M476.93,177.7c-1.34-9.07,1.43-18.22,2.85-27.38H521c2.64,8.78,5.38,17.81,5.38,17.81s1.76,20.8-15.89,23.29C510.51,191.42,479.73,196.75,476.93,177.7Z"/>
          <g>
            <path class="cls-2" d="M523.83,249.09C515,262.34,509,250.63,509,250.63L494.69,180c0,1.09.42-9.19,14-9.39s17.7,4.47,17.7,4.47.36,51.77-2.59,74"/>
            <path class="cls-2" d="M508.78,249.73s14.16,80.43,15,83c0,0,6.73.46,6.53-1-.47-3.63.75-54.35,0-60-1.91-14.42-3.91-16.9-9.06-26C521.24,245.63,507,238.07,508.78,249.73Z"/>
          </g>
          <g>
            <path class="cls-29" d="M523.13,331.19l-4,12.15s.82,10.87,9.54,4.13l2.6-2.51a2.78,2.78,0,0,0,.94-2.67l-.78-4.66-.92-6.44S525.06,327.48,523.13,331.19Z"/>
            <path d="M528.69,345.92l2.6-2.51a2.72,2.72,0,0,0,.89-1.4l.05.28a2.78,2.78,0,0,1-.94,2.67l-2.6,2.51c-8.72,6.74-9.54-4.13-9.54-4.13l.15-.48C519.79,345.43,521.72,351.31,528.69,345.92Z"/>
          </g>
          <path class="cls-31" d="M507.24,252.58c-5-14.58-14.34-74.88-14.34-74.88,0,1.09,2.81-14.4,16.41-14.6s17.09,5,17.09,5,4.25,59,1.3,81.24C527.7,249.37,518.15,260.4,507.24,252.58Z"/>
          <path class="cls-5" d="M483.37,89.09s-23,27.09-34.49,36.06c0,0-7.7-2.84-7.46-8.07,0,0,16.86-25,27.45-39.71C468.87,77.37,483.19,73.25,483.37,89.09Z"/>
          <path class="cls-5" d="M444.76,114.81s-25.16,14.64-35.57,19.54c0,0-1.87,2.92,1.15,3.2,5,.46,40.08-11.41,40.94-14.16C455.27,110.54,444.76,114.81,444.76,114.81Z"/>
          <path class="cls-5" d="M467.73,86.06a9.39,9.39,0,0,0,12,5.56,9.26,9.26,0,0,0,5.45-12,9.39,9.39,0,0,0-12-5.55A9.25,9.25,0,0,0,467.73,86.06Z"/>
          <path class="cls-32" d="M479.23,73.58a12.29,12.29,0,0,0-13.85,5.18L445.29,107.9a33.2,33.2,0,0,0,13.92,14.35S495.18,89.12,479.23,73.58Z"/>
          <path class="cls-15" d="M502.51,63.8s1.66-3.19,5.31-9.31c0,0,7.79-8,3.43-18,0,0-2.4-8.4-17.09-7.18C494.16,29.27,492.76,52.39,502.51,63.8Z"/>
          <path class="cls-2" d="M503.09,50.71s-2.47,23,2.8,24.79l-18.8-1.12s3-7-.48-12.1Z"/>
          <path class="cls-10" d="M488.13,70.35c.31-5.26-.35-6.33-1.52-8.07l16.48-11.57a111.52,111.52,0,0,0-.52,14.19C497.8,69.42,493.86,70.48,488.13,70.35Z"/>
          <path class="cls-2" d="M473.84,73.54c-4.19,3-4.67,10.37-3.18,14.94,1.72,5.24,2.4,11.94,4.12,19.52,2.33,10.29,3.9,18.2,6.5,28.42,2.15,8.44,36.08,1.63,36.08,1.63L529.52,96.5s2.1-10.85-7.73-14.46c0,0-10.36-5.59-17.94-8.16-6.69-2.27-9.11-2.48-16-2.06C487.86,71.82,478.66,72.16,473.84,73.54Z"/>
          <path class="cls-33" d="M479.88,31c-1,4.42-2.07,6.73-.85,10.79,1.1,3.64.85,7.46,2.44,11,2.26,5,5.22,4.38,7.47-.25s4.72-11.14-.5-14.65c-3.34-2.26-4.55-6.13-8.56-6.88Z"/>
          <path class="cls-15" d="M482.79,65.56,482,63l-2-9.63a9.7,9.7,0,0,1,.15-4,9.92,9.92,0,0,0,.34-4.11c-1.19-6.91,2.57-10.51,2.57-10.51,4.31-6.11,13.76-5.63,13.76-5.63,11.66,1.16,12.07,12.52,12.07,12.52,1.52,7.62-4.78,13.58-4.79,13.59-.5.48-.38,3-.56,3.67-.77,3-3.73,4.67-6.34,5.81-2.87,1.25-6.33,2.57-9.47,2.7C486.57,67.4,483.23,67.05,482.79,65.56Z"/>
          <path class="cls-33" d="M480.26,53.14c1.53,1.38,3.62.75,5.25,1.75a2.72,2.72,0,0,0,2.76.27,4.41,4.41,0,0,1,2.64.09c1,.28,2.74,1.13,3.68,1.51a3.49,3.49,0,0,0,4.18-1c1.18-1.43,1.62-1.73,2.17-3.44,1-3.15,4.2-3.34,6.4-1.57a18.45,18.45,0,0,1-3.21,4.38c-.5.48-.38,5-.56,5.72-.77,3-3.73,4.67-6.34,5.82-2.87,1.25-7.24,1.43-10.39,1.56-1.19,0-3.61-1.22-4-2.71L482,63l-2-9.63a4.68,4.68,0,0,1-.07-.54A2.6,2.6,0,0,0,480.26,53.14Z"/>
          <path class="cls-33" d="M480.05,35.12c2.64,0,2.61,2.21,4.63,3.44,4.34,2.64,11.06-1.22,14.56,3a9,9,0,0,1,.88,1.35,20.11,20.11,0,0,1,1.67,6.39c.1.63-.37,2.25.2,2.73.33.28.9.19,1.5,0,.12,1-.66,1.71-1,2.6s-.86,1.64-.38,2.54c1.21,2.32.28,1.93.39,6.58a19.7,19.7,0,0,1,3.19-2.95,23.5,23.5,0,0,0,4.51-5,31.72,31.72,0,0,0,2.74-6c1.27-3.38,2-7,1-10.59,0,0-.8-8.23-7.69-9.12,0,0,.88-5.3-11.72-6.71,0,0-9.94.16-10.49-3.27a4.87,4.87,0,0,0-1.51,4.37s-4.09,1.24-5.93-3.44C476.59,21.08,473.18,33.41,480.05,35.12Z"/>
          <g>
            <path class="cls-15" d="M502.33,57.12a2.05,2.05,0,0,0,1.32.78c1.57.29,3.14-1.17,3.51-3.26s-.6-4-2.16-4.3a2.56,2.56,0,0,0-2.11.66c-.9.77-1.19,2.47-1.2,3.68A4,4,0,0,0,502.33,57.12Z"/>
            <g>
              <path class="cls-16" d="M504,52.2c.24-1.1,2.36.23,1.94.81a3.27,3.27,0,0,1-1,.77,1.67,1.67,0,0,0-.84,1.13c0,.06-.05.25,0,.31.27.23,1.35-.74,1.59-.94a1.88,1.88,0,0,0,.48-1.74,1.13,1.13,0,0,0-1.13-1c-.51,0-1-.06-1.07.57,0,0,0,.12,0,.07Z"/>
              <path class="cls-16" d="M504.6,53.43c-.21-.26-.45-.09-.71,0a1.08,1.08,0,0,0-.48.61,2.65,2.65,0,0,0,0,1.88,1.42,1.42,0,0,0,1.13.79c.68.06,1-.52,1-1.08,0-.15.09-.52-.05-.63s-.3.12-.42.21a.88.88,0,0,1-.59.15,1.23,1.23,0,0,1-1-.57,1.42,1.42,0,0,1-.08-.18c0,.37,0,.45,0,.25a1.43,1.43,0,0,1,.16-.24c.19-.24.48-.39.68-.62s.3-.48.2-.62Z"/>
            </g>
          </g>
          <path class="cls-16" d="M486.14,52.57l3.18,1.22s-4.29.27-4.46-1c0,0,.65-2.43,1.36-4.73C486.22,48.08,485.67,52.38,486.14,52.57Z"/>
          <g>
            <path class="cls-33" d="M491.68,48.08c0,.67.37,1.22.83,1.22s.82-.55.82-1.22-.36-1.21-.82-1.21S491.68,47.41,491.68,48.08Z"/>
            <path class="cls-33" d="M482.52,47.06c0,.68.37,1.22.83,1.22s.82-.54.82-1.22-.37-1.21-.82-1.21S482.52,46.39,482.52,47.06Z"/>
            <path class="cls-33" d="M490.82,45.73c-.29.06-.36-.34-.36-.34a1.29,1.29,0,0,1,0-.71.66.66,0,0,1,.35-.36,10.06,10.06,0,0,1,3.51.45c.69.21,1.82.73,1.9,1.37,0,.2,0,.53-.18.59A27.89,27.89,0,0,0,490.82,45.73Z"/>
            <path class="cls-33" d="M480.4,44.68a25.07,25.07,0,0,1,4.1.43c.27.14.45-.22.45-.22a1.45,1.45,0,0,0,.17-.7.7.7,0,0,0-.24-.44,7.47,7.47,0,0,0-3-.47,5.61,5.61,0,0,0-1.52.21A2.89,2.89,0,0,0,480.4,44.68Z"/>
          </g>
          <path class="cls-18" d="M484.37,56.45c-.26,0-.4.11-.31.3a3.92,3.92,0,0,0,6.78.82c.16-.17,0-.35-.3-.39C490.54,57.18,487.09,56.74,484.37,56.45Z"/>
          <path class="cls-31" d="M523.55,159.9a25.61,25.61,0,0,1,0,24.72c-7.22,13.07-29.27,8.3-29.33-8.62C494.15,159.29,509.36,152.9,523.55,159.9Z"/>
          <path class="cls-34" d="M487.86,71.82s-9.2.34-14,1.72c-4.19,3-4.67,10.37-3.18,14.94,1.72,5.24,2.4,11.94,4.12,19.52,2.33,10.29-.61,17.8,2,28,2.14,8.45,47.05,0,47.05,0l5.7-39.51s2.1-10.85-7.73-14.46c0,0-9.89-5.43-17.47-8,0,0,1.18,8-11.85,5.79C492.47,79.83,484.51,77.91,487.86,71.82Z"/>
          <path class="cls-35" d="M523.82,136c1.9,6.79,3.41,29.65,3.41,29.65-5.16,21.41-52.65,6-52.93,2.94-.34-3.68,1.12-21.17,1.86-36.31C476.16,132.29,496.14,125.14,523.82,136Z"/>
          <path class="cls-2" d="M509.82,97.51c3.1,6.3,14.6,38.11,18.29,43.14,1,1.33,10.47,7.44,12.6-.88-5.22-33-13.13-51.86-13.13-51.86s-9.23-7.69-16.6-.58C511,87.33,507.63,93.14,509.82,97.51Z"/>
          <path class="cls-2" d="M508.51,91.87a11.11,11.11,0,1,0,12.8-9.1A11.12,11.12,0,0,0,508.51,91.87Z"/>
          <path class="cls-36" d="M519.47,80.82s9.54,3.58,11.8,11.33l5.89,21.08s-7.72,11.23-19.22,10.86L506.57,98.83S498.92,84.65,519.47,80.82Z"/>
          <path class="cls-5" d="M397.25,141.14l2.94-.08s-5.36,1.38-7.09-.37c0,0-.44-.27.25-.89a41.19,41.19,0,0,0,6.83-.77,29.64,29.64,0,0,1-8,.8.88.88,0,0,1,.1-1.64c-1.06-.41-.15-1.11-.15-1.11a18.22,18.22,0,0,1,3.19-1.23A75.7,75.7,0,0,0,402.6,133s-3.09-2-1.93-3.66l4.77,2.52,4.32,2.78.58,2.92-4.5,3.13s-4.37,1.75-6.84,1.84C399,142.52,391.91,142.26,397.25,141.14Z"/>
          <path class="cls-31" d="M507.24,252.58l12.35,77s4.09,3.95,13.59,0l1.57-37.6s2.79-24.85-7-42.57C527.7,249.37,508.32,233.73,507.24,252.58Z"/>
          <path class="cls-30" d="M496.25,250.25s5.26,7.6.55,36.15l-4.82,39a12.87,12.87,0,0,1-11.79.15l-3.88-77.67S479.79,234.69,496.25,250.25Z"/>
          <g class="cls-22">
            <path class="cls-37" d="M406.14,156.29a3,3,0,0,0-1.52-2.47,4.27,4.27,0,0,0-.51-.3l-.17-.08-.39-.18-.1,0-.09,0-.67-.22h0l-.72-.18-.08,0-.1,0-.88-.17h-.09l-.94-.14h-.1c-.33-.05-.66-.08-1-.12h0l-.81-.09-1-.12-.17,0-.92-.13-.46-.08-1-.19-.17,0-.68-.16h0l-.68-.18-.22-.07-.46-.14L392,151l-.46-.17-.17-.06-.57-.24a16.4,16.4,0,0,1-2.51-1.64l.19,20.92a16.2,16.2,0,0,0,2.51,1.64l.56.24h0l.13.05.47.17.21.07.48.15.13,0,.07,0,.68.19h0l.7.17h.07l.09,0,.95.2.39.07h.08l.91.13.18,0,.93.11h0l.62.07.24,0,1,.13H400c.32,0,.64.08.95.14h.1l.87.17.19,0,.72.18.67.23.19.07.39.18.17.08.52.31a3,3,0,0,1,1.51,2.47Z"/>
            <path class="cls-38" d="M375.83,202.36l.21-.05.3-.07.24,0,.2,0,.16,17.53,29,19.58-.18-20.91-24-16.23,1.06.15.24,0,.4.08.29.05.38.08.26.06.62.15.18,0,.77.22.15,0,1.06.34.05,0,1.05.38.09,0c.4.15.79.32,1.18.5l.06,0q.59.27,1.17.57l0,0c.39.2.78.41,1.15.63h0c.38.22.75.46,1.11.7,3.2,2.16,4.89,4.59,4.91,6.66q-.11-10.47-.19-20.92c0-2.07-1.7-4.49-4.9-6.66-.36-.24-.74-.47-1.11-.7h0q-.56-.33-1.14-.63l0,0q-.57-.3-1.17-.57l-.05,0c-.39-.18-.79-.35-1.19-.5h0l-.06,0c-.35-.14-.71-.27-1.06-.39l0,0-1.07-.34-.08,0-.06,0-.78-.22-.16,0-.64-.16-.12,0-.13,0-.4-.09-.27,0-.4-.07-.2,0h-.05l-1.07-.15h-.15l-.92-.08h-.18a15.42,15.42,0,0,0-1.66,0,.33.33,0,0,0-.1,0h-.08l-.77,0h-.07l-.78.09h-.14l-.31.06-.22,0-.32.07-.17,0h0c-.23.05-.45.12-.66.18l-.15,0-.63.23a4.73,4.73,0,0,0-.45.23l-.13.07-.15.08-.12.08-.15.1-.23.16-.12.1-.05,0-.24.22,0,0-.18.18-.05.06-.08.09-.16.2-.06.09,0,0-.07.11-.12.19-.09.15a1.74,1.74,0,0,0-.1.19.16.16,0,0,0,0,.07.25.25,0,0,1,0,.07c-.05.11-.1.23-.16.34l0,.07-.2.45c0,.12-.09.23-.14.35l-.06.13-.2.41a2.12,2.12,0,0,1-.11.21l-.06.1a3.21,3.21,0,0,1-.19.31l-.13.19-.21.28a1.25,1.25,0,0,0-.09.12l-.31.35,0,0-.36.36-.11.11-.28.25-.15.12-.3.23-.14.11-.47.31-.06,0h0l-.06,0,0,0-.08,0s0,0,0,0l-.09,0-.08,0-.08,0-.1.05-.1,0-.1.05-.15.07-.07,0-.25.11a17.84,17.84,0,0,1-1.78.71L335.62,171l.18,20.92,29.06,19.61c.6-.2,1.24-.47,1.79-.71l.45-.21h0l.19-.09h0l.13-.06.06,0,.09-.05a.15.15,0,0,0,.07,0l.07,0,.06,0,0,0,.06,0,0,0,0,0h0a5.52,5.52,0,0,0,.47-.32l.14-.1.31-.24.07-.06.07-.06.28-.25.11-.1q.19-.18.36-.36h0l0,0,.3-.35.09-.12c.08-.09.14-.18.21-.27l0-.07.09-.12.19-.31.06-.11c0-.07.07-.13.1-.19h0l.2-.41.06-.13.15-.35c.06-.15.13-.3.2-.45l0-.07a3.54,3.54,0,0,1,.16-.34l.07-.14.11-.2a1,1,0,0,1,.08-.14l.13-.2a1.3,1.3,0,0,1,.1-.15l.07-.09.15-.2.09-.09.22-.24,0,0a3.47,3.47,0,0,1,.29-.25l.13-.1.22-.17.16-.09.27-.17.12-.07.46-.22.62-.23.15-.05A6.36,6.36,0,0,1,375.83,202.36Z"/>
            <polygon class="cls-39" points="495.71 180.52 495.9 201.44 405.96 239.28 405.78 218.37 495.71 180.52"/>
            <path class="cls-40" d="M335.62,171l37.2-15.65a17.72,17.72,0,0,1,2.91,2.2c1.74,2.3-.5,5.42,2.42,7.39,3.59,2.42,12.43,1.89,19.74-1.18l.6-.26c6.87-3.07,9.62-7.35,6.13-9.7-2.23-1.51-6.08-1.41-9.21-2a20.47,20.47,0,0,1-4.6-1.34,16.4,16.4,0,0,1-2.51-1.64l37.25-15.67,70.16,47.34-89.93,37.85-29-19.59.36-.17a34.84,34.84,0,0,1,3.83-1.4c4.33-1,10.19.2,13.93-1.37,4.58-2,3.64-6.67-2-10.48s-14.06-5.4-18.67-3.46c-2.85,1.27-2.74,3.28-3.85,4.92a8.45,8.45,0,0,1-2.57,2.46c-.14.08-.66.35-1.33.64a17.84,17.84,0,0,1-1.78.71Z"/>
          </g>
          <g>
            <path class="cls-2" d="M529.48,137.9a392.68,392.68,0,0,0-20.7,43s.17,4.33,3.37,3,29-37.85,29-41.17C541.21,134.2,529.48,137.9,529.48,137.9Z"/>
            <path class="cls-2" d="M502.62,189.6l2.78-.95s-4.71,2.9-6.88,1.75c0,0-.5-.13,0-.93a41.15,41.15,0,0,0,6.3-2.75,29.92,29.92,0,0,1-7.44,3.14s-1.51-.43-.39-1.59c-1.14-.08-.48-1-.48-1a18.35,18.35,0,0,1,2.69-2.12,76.37,76.37,0,0,0,6.15-4.9s-3.56-1-2.93-2.92l5.3,1,4.95,1.38,1.41,2.62-3.37,4.31s-3.65,3-6,3.79C504.69,190.4,497.84,192.26,502.62,189.6Z"/>
          </g>
        </g>
        <g>
          <g>
            <path class="cls-41" d="M453.61,223.08a3.1,3.1,0,0,1,3.66-2.14,2.43,2.43,0,0,1,1.78,2.63c0,.27-.08.53-.1.8-.47,2.85-3.48,3.93-3.48,3.93"/>
            <path class="cls-42" d="M457,222.28a1.57,1.57,0,0,0-.72-.19c-1.09-.07-2,1.61-.88,1.9a.63.63,0,0,1,0,.87c-.38.4-.88,1-.77,1.56.07.34.45.53.79.61s.33-.15.11-.25a1.23,1.23,0,0,1-.41-.34l0-.06s0,0,0,0a.31.31,0,0,1,0-.25.67.67,0,0,0,.84,0c.21-.25.05-.64.12-.92a2.18,2.18,0,0,1,.25-.56c.5-.84-.4-1-.4-1a2.68,2.68,0,0,0-.33,0c-.45-.24.06-.92.33-1a.86.86,0,0,1,.95.16,1.36,1.36,0,0,1,.31,1,3.37,3.37,0,0,1-.3,1.16l-.32.65c-.12.23.16.33.27.1a6.87,6.87,0,0,0,.78-1.9A1.45,1.45,0,0,0,457,222.28Z"/>
            <path class="cls-42" d="M453.61,223.08s.13-.19.34-.53a4.71,4.71,0,0,1,.45-.52,3.49,3.49,0,0,1,.69-.53,2.87,2.87,0,0,1,.93-.34,2.55,2.55,0,0,1,1.06.07,3,3,0,0,1,.54.23,2.15,2.15,0,0,1,.43.33,2,2,0,0,1,.57,1,3,3,0,0,1,0,1.2l0,.33v0h0s0,0,0,0h0v.1l0,.17a3,3,0,0,1-.15.57,4.35,4.35,0,0,1-.51,1,5.36,5.36,0,0,1-.65.81,7.68,7.68,0,0,1-1.23,1c-.33.21-.53.32-.53.32a3.28,3.28,0,0,0,.6-.19,6.17,6.17,0,0,0,1.45-.83,5.08,5.08,0,0,0,.81-.8,4.33,4.33,0,0,0,.68-1.11,4.87,4.87,0,0,0,.21-.65l0-.16,0-.08v-.13l.05-.32a3.44,3.44,0,0,0,0-1.46,2.78,2.78,0,0,0-.8-1.31,3.36,3.36,0,0,0-.29-.24l-.34-.19a3.2,3.2,0,0,0-.66-.23,2.68,2.68,0,0,0-1.35,0,3,3,0,0,0-1,.52,2.92,2.92,0,0,0-.66.72,3.74,3.74,0,0,0-.37.63C453.68,222.86,453.61,223.08,453.61,223.08Z"/>
          </g>
          <g>
            <path class="cls-18" d="M455.47,227.61a.91.91,0,0,1-1.81,0,.91.91,0,1,1,1.81,0Z"/>
            <path class="cls-43" d="M454.79,228.09a.71.71,0,0,1-.22-1.39h0a.91.91,0,1,0,0,1.81.9.9,0,0,0,.9-.9v-.07A.71.71,0,0,1,454.79,228.09Z"/>
          </g>
        </g>
        <g>
          <path class="cls-44" d="M453.61,223.08c.73-1.05,3.42-1.69,3.42-1.69,3.24,0,2.82,4.32,3.12,6.2q.15.91.36,1.86c1.54,5.5,6.17,5.45,10.12,6.12a5,5,0,0,1,.46-.26,15.77,15.77,0,0,1,3-5c5.93-5.13,7.87-14.35,5.61-21.6a17.11,17.11,0,0,0-3.7-6.2,21.85,21.85,0,0,0-12.27-6.32c-4.59-.86-21,1.36-16.54,11.35,0,0,6.76,7.8,6.43,15.52"/>
          <g>
            <path class="cls-2" d="M446.81,231.68l-.56-2.54-1.12-9.29a8.46,8.46,0,0,1,.55-3.78,8.44,8.44,0,0,0,.76-3.86c-.56-6.65,3.72-9.71,3.72-9.71,5.1-5.41,14.92-4.12,14.92-4.12,5.08,1,9.43,3.11,11.71,7.48,2.07,3.95,3,8.69,1.4,12.91-1.79,4.62-4.93,8.14-9,11.27-2.59,2-5.12,2.14-8.4,3a37,37,0,0,1-9,.74C450.58,233.76,447.13,233.14,446.81,231.68Z"/>
            <g>
              <g class="cls-22">
                <path class="cls-45" d="M386.08,259.34a3,3,0,0,1,1.49-2.43,4.27,4.27,0,0,1,.51-.3l.17-.08.38-.17.1-.05.09,0,.65-.22h0c.23-.07.46-.13.7-.18l.09,0,.1,0,.85-.17h0l.09,0,.88-.12.12,0,1-.11h.05l.22,0,.65-.07.9-.11.18,0,.88-.13.46-.08.93-.19.18,0,.66-.16h0l.67-.18.21-.06.45-.15.22-.07.44-.16.18-.07.56-.24a14.87,14.87,0,0,0,2.47-1.61l-.18,20.58a15.57,15.57,0,0,1-2.47,1.61l-.56.24a.05.05,0,0,0,0,0l-.13,0-.45.17-.22.07-.45.14-.14.05-.07,0-.66.18h0l-.66.16-.08,0-.1,0-.93.19-.39.07H396l-.87.13-.19,0-.87.11h0l-.62.07-.31,0-1,.11-.11,0c-.3,0-.59.08-.88.12l-.12,0-.85.17-.18,0c-.25.05-.48.11-.71.18h0l-.65.22-.19.08-.39.17-.16.08a4.27,4.27,0,0,0-.51.3,3,3,0,0,0-1.49,2.43Z"/>
                <path class="cls-46" d="M305.71,278.74a.5.5,0,0,1,0-.12l0-.11v0a1,1,0,0,1,0-.17s0-.08,0-.12V278s0-.07,0-.1v0l.18-20.58c0,.05,0,.09,0,.14v.17s0,.08,0,.12a1,1,0,0,0,0,.17l0,.14a.5.5,0,0,0,0,.12s0,.1,0,.14l0,.12,0,.05a2.17,2.17,0,0,0,.17.42h0c.07.13.15.25.23.38l0,.06c.09.11.18.23.28.34l.09.09a.47.47,0,0,0,.1.1l.11.11.11.1.11.09.19.15.11.07.24.15.09.06.23.13.1,0,.35.17c.24.1.48.19.73.27l.25.07.52.14.14,0a5.31,5.31,0,0,0,.6.12l.24,0,.58.08.19,0,.76.07.48,0,.42,0,.5,0h.4l1,0h3.31l.47,0,.44,0,.45,0h.15l.5,0h.1l.64.08.08,0c.31,0,.62.1.93.17h.1l.06,0,.05,0,.09,0,.07,0,.1,0,.07,0,.13,0,.08,0,.14,0,.09,0,.15.06.09,0,.16.05.11,0,.15.06.13,0,.15.06.13.05.15.05.14.05.15.06.14.06.15.06.14.05.15.06.14.06.16.07.12,0,.26.12.37.17-.18,20.58-.37-.17-.27-.12-.08,0-.19-.08-.11,0-.18-.07-.12-.05-.17-.06-.13-.05-.16-.07-.14-.05-.15-.06-.13,0-.16-.06-.12,0-.15-.06-.13,0-.13-.05-.13,0-.12,0-.11,0-.11,0-.11,0-.1,0-.09,0-.09,0-.08,0-.07,0-.06,0-.06,0h-.1c-.31-.07-.62-.13-.93-.17l-.71-.1h-.13l-.63-.05-.45,0-.44,0-.46,0h-3.33l-.95,0h-.44l-.47,0-.43,0-.47,0h-.05l-.72-.07-.18,0-.35-.05h0l-.23,0-.24,0L310,282l-.15,0h0l-.47-.13-.25-.07c-.25-.08-.49-.17-.73-.27l-.35-.17-.12-.06-.21-.12h0l-.08-.05-.23-.15-.11-.08-.19-.14-.06-.05h0l-.05,0-.11-.1-.12-.11-.09-.1-.06-.06,0,0c-.1-.11-.19-.23-.28-.35l0,0,0,0c-.08-.13-.16-.25-.23-.38h0a3.56,3.56,0,0,1-.17-.41s0,0,0,0h0v0l0-.11S305.72,278.79,305.71,278.74Z"/>
                <polygon class="cls-47" points="297.95 283.18 297.77 303.76 386.26 340.99 386.44 320.41 297.95 283.18"/>
                <polygon class="cls-48" points="386.44 320.41 386.26 340.99 455.28 294.42 455.46 273.83 386.44 320.41"/>
                <path class="cls-49" d="M455.46,273.84l-36.6-15.41A17.91,17.91,0,0,0,416,260.6c-1.71,2.26.49,5.33-2.38,7.27-3.53,2.38-12.23,1.86-19.42-1.17l-.6-.25c-6.75-3-9.46-7.23-6-9.54,2.2-1.49,6-1.39,9.07-2a19.91,19.91,0,0,0,4.52-1.32,14.87,14.87,0,0,0,2.47-1.61L367,236.6l-28.59,19.3c-.59-.2-1.23-.47-1.77-.71s-1.15-.54-1.29-.63a8.28,8.28,0,0,1-2.53-2.41c-1.09-1.62-1-3.59-3.65-4.79-4.67-2-12.89-.44-18.5,3.35s-6.47,8.3-2.11,10.24c3.83,1.62,9.59.48,13.85,1.42a33.17,33.17,0,0,1,3.75,1.37l.37.17L298,283.18l88.49,37.23Z"/>
              </g>
              <path class="cls-50" d="M492.58,489c0,7.18-40.2,13-89.79,13S313,496.18,313,489s40.2-13,89.79-13S492.58,481.82,492.58,489Z"/>
              <g>
                <path class="cls-5" d="M430.43,487.83s-5.36-1-3.86,3.39c0,0,12.52,5.38,21.26,4.17,0,0,6.15-.21,5.18-6.88l.1-5.41-8.24,1.56.47,5.15Z"/>
                <path class="cls-51" d="M453,488.51a3.46,3.46,0,0,1-.82,2.33c-2.16,2.48-6.4,2.56-9.38,2.37a101,101,0,0,1-14.28-2c-1-.21-1.3-.55-1.31-.85a4.15,4.15,0,0,1,3.21-2.53l-4.57-.59c-4.21-.15-6.12.82-7.1,1.46-1.17,3.33,4.51,5.55,4.51,5.55A92.34,92.34,0,0,0,436.56,498s16,3.78,17.95-1.15Z"/>
              </g>
              <g>
                <path class="cls-5" d="M462.25,480.38s-5.36-1-3.85,3.39c0,0,12.52,5.38,21.26,4.17,0,0,6.14-.21,5.18-6.87l.1-5.42-8.24,1.56.47,5.15Z"/>
                <path class="cls-51" d="M484.84,481.07a3.51,3.51,0,0,1-.82,2.32c-2.16,2.49-6.4,2.56-9.39,2.37a101,101,0,0,1-14.27-2c-1-.22-1.31-.55-1.32-.85a4.14,4.14,0,0,1,3.21-2.54l-4.56-.58c-4.21-.15-6.12.81-7.11,1.45-1.16,3.33,4.51,5.55,4.51,5.55a91.31,91.31,0,0,0,13.29,3.71s16,3.78,18-1.14Z"/>
              </g>
              <g>
                <g>
                  <path class="cls-52" d="M460.77,335.71a15.3,15.3,0,1,0,15.3-15.3A15.3,15.3,0,0,0,460.77,335.71Z"/>
                  <path class="cls-53" d="M485.69,409.36s-.21,3.84-7.12,3.94c0,0-6.54,2.23-9.36-6.29-11.13-33.53-8.19-68.53-8.19-68.53s15.71-8.75,30.34-2.77C491.36,335.71,489,379.73,485.69,409.36Z"/>
                </g>
                <path class="cls-54" d="M469.21,407s5.39,72.48,5.89,75.08A9,9,0,0,0,485,482c0-3.55,3.84-33.19,4.25-38.76.68-9.56,1.83-21.65-4.21-35.4Z"/>
                <g>
                  <path class="cls-55" d="M441.36,411.57s-1.48,3.56-8,1.35c0,0-6.91-.06-6.75-9,.61-35.33,16.09-71.95,16.09-71.95s17.44-1.66,29.26,8.83C471.93,340.78,454.29,384.71,441.36,411.57Z"/>
                  <path class="cls-56" d="M443.06,330.64a15.3,15.3,0,1,0,19.5-9.36A15.31,15.31,0,0,0,443.06,330.64Z"/>
                </g>
                <path class="cls-57" d="M491.36,333.49c-1.84-17-10.38-24.91-10.38-24.91l-29.57-3.74s-8.15,14.19-9,28.65c3.54,9.64,16.14,12.45,16.14,12.45l9.57,2.84S489.79,345.48,491.36,333.49Z"/>
                <path class="cls-58" d="M427.94,410.93s14.67,76.14,15.55,78.63c-.38-.19,6.93,3.36,10.18-1.22-.56-3.51-.87-42.19-1.29-47.75-.74-9.57-.64-18.49-8.65-31.19C443.73,409.4,423.7,395.06,427.94,410.93Z"/>
              </g>
              <g>
                <path class="cls-5" d="M493.55,277.61s-5.38,6.34-16.1,21.66l1.85,3.14s18.35-9.25,24.21-19.62Z"/>
                <path class="cls-5" d="M478.38,254.91s13.82,30.15,22.11,29c0,0,2.87.18,3.44-2,0,0,5.86-5.19-18.5-42.68a7.52,7.52,0,0,0-7.26-2.36S470.77,241.78,478.38,254.91Z"/>
              </g>
              <path class="cls-59" d="M495,315.67,478.47,292c-.77-3.48,1-10.4,1-10.4l5.26-36.24c-.62-4.16-.91-9.43-6.53-8.49a34.59,34.59,0,0,0-7.19,2c.71,3.36-5.1,5.53-5.1,5.53-8,3.45-9.84,1.17-9.84,1.17-2.12,1.16-9.32,4.75-11.18,6.28s-3.12,4.08-2.51,8.27l5.76,34.35-1,8.54-10.5,26.64a22.55,22.55,0,0,1,10.23-1.23c3.27.4,6.09,2.32,9.33,2.68,4.91.54,8.55-1.23,12.25-3.57a59.18,59.18,0,0,0,14.17-5h.3c3.67,0,7.83-.05,10.53-2.92C494,319.06,495.65,316.67,495,315.67Z"/>
              <path class="cls-2" d="M438.07,306.88l.09-41.73c1-11.44,6.7-13.27,6.7-13.27,11.48-1.34,9.71,19.93,9.71,19.93l-4.79,35.95"/>
              <path class="cls-2" d="M401.52,329.7c5.27-2.82,5.74-3.73,6.67-5.06,4-5.68-4.09-5.5-6.13-5-1.17.27-1.24,3-4.87,6.44,0,0-5.7,3.31-7.1,3.07,0,0-1.46.21-1.46,1.26C388.63,330.37,392.63,332.74,401.52,329.7Z"/>
              <path class="cls-2" d="M438.93,302.48l-35.75,19.57c-1.54,4.3.44,4.92.44,4.92l27.68-8c11.81-3.16,16.5-8.12,16.5-8.12s5.16-3.58-1.43-8.91C446.37,302,443.37,299.6,438.93,302.48Z"/>
              <path class="cls-44" d="M450.43,220.52c.93,6.92-.11,16.08,3.34,23.65,1.53,3.37,3.22,5,2.3,8.94-.75,3.2-2.26,6.22-3.08,9.53-1.81,7.3.65,14.44,9.16,11.8,4.09-1.27,4.55-1.25,8.26.19,3.13,1.21,6.06,1.55,9.17,0,4.81-2.35,3.36-5.89,6.06-9.44,2.05-2.71,5-2.64,6.51-6.27,1.87-4.39-.36-6.73-2.64-10.45-2.37-3.88-2.75-6.44-2-11.11.66-3.93-.31-5.92-1.61-9.53s-.75-6.92-1.39-10.64c-1.24-7.33-5.26-17.29-12.94-19.45-3.77-1.05-8.64-1.88-12.27-.55-4.93,1.81-10.43,3.74-10.22,9.82A101.05,101.05,0,0,0,450.43,220.52Z"/>
              <path class="cls-2" d="M403,319.46s1,2.93-2.65,2.21L396.8,319a1.4,1.4,0,0,1-.71-1.66s.42-.6,1.56,0Z"/>
            </g>
          </g>
        </g>
        <g>
          <g class="cls-22">
            <g>
              <path class="cls-60" d="M279,212.35v.15a1,1,0,0,0,0,.17.59.59,0,0,1,0,.13,1,1,0,0,1,0,.16.77.77,0,0,1,0,.15l0,.11a.75.75,0,0,1,0,.16l0,.11,0,.06a3.69,3.69,0,0,1-.17.42h0a2.14,2.14,0,0,1-.23.38l0,.06a3.07,3.07,0,0,1-.28.35l-.09.1a.94.94,0,0,1-.1.1l-.12.11-.11.1-.11.08-.2.16-.11.07a1.82,1.82,0,0,1-.23.15l-.1.07-.22.12-.11.06-.36.17a8.83,8.83,0,0,1-1.48.48c-.41.1-.84.18-1.27.24s-.84.11-1.28.14c-.6.05-1.21.08-1.84.1-1.36,0-2.76,0-4.12.06-.62,0-1.22,0-1.81.1l.18,20.91c.59,0,1.2-.07,1.81-.09,1.36,0,2.76,0,4.13-.06.62,0,1.23-.05,1.84-.1.43,0,.86-.08,1.27-.14a12.41,12.41,0,0,0,1.27-.24,9.5,9.5,0,0,0,1.48-.48,3,3,0,0,0,.36-.17l.1-.05.24-.14h0l.07,0,.24-.16.11-.07.2-.16.06-.05,0,0L278,236l.11-.11.11-.11.06-.06,0,0a3.17,3.17,0,0,0,.29-.35v0l0,0c.08-.13.16-.26.23-.39h0a3.25,3.25,0,0,0,.18-.43s0,0,0,0v0s0-.09,0-.13a1,1,0,0,1,0-.14.5.5,0,0,1,0-.12.43.43,0,0,0,0-.11v0c0-.06,0-.12,0-.17s0-.08,0-.12a1.21,1.21,0,0,0,0-.19v-.13Z"/>
              <path class="cls-61" d="M262.16,217.5h0a35.37,35.37,0,0,0-3.79,1.4l-.38.17.19,20.92.37-.17a36.12,36.12,0,0,1,3.8-1.4h0c.33-.08.67-.14,1-.19s.83-.1,1.26-.14l-.18-20.91c-.43,0-.85.08-1.26.14S262.48,217.43,262.16,217.5Z"/>
            </g>
            <path class="cls-62" d="M287.17,259.57,287,238.66l-37.25,15.67.15,17.41c-4.33.52-8.21.11-10.31-1.31a3.71,3.71,0,0,1-1.64-3.4c0-.34,0-.69,0-1a4.67,4.67,0,0,0-.76-2.95,18.55,18.55,0,0,0-2.91-2.21L197.05,276.5l.19,20.92,37.21-15.66a17.82,17.82,0,0,1,2.9,2.21,4.31,4.31,0,0,1,.76,2.62v1c0,1.36.14,2.7,1.65,3.72,3.6,2.43,12.43,1.89,19.74-1.18l.61-.27c4.86-2.16,7.66-4.94,7.64-7.21q-.06-7.45-.13-14.89Z"/>
            <path class="cls-63" d="M276.23,216.06l.18,20.92c-3.89,1.64-9.74.49-14.07,1.44a33.44,33.44,0,0,0-3.82,1.4l-.37.17L258,219.07l.38-.17a33.44,33.44,0,0,1,3.82-1.4C266.48,216.55,272.34,217.7,276.23,216.06Z"/>
            <polygon class="cls-64" points="197.05 276.5 126.89 229.16 127.08 250.08 197.24 297.42 197.05 276.5"/>
            <path class="cls-65" d="M266.06,259.3c-2.23-1.51-6.08-1.42-9.21-2a20.68,20.68,0,0,1-4.6-1.34,15.47,15.47,0,0,1-2.51-1.64L287,238.66l-29-19.59.38-.17a33.44,33.44,0,0,1,3.82-1.4c4.32-.95,10.18.2,14.07-1.44,4.43-2,3.5-6.6-2.15-10.41s-14.05-5.39-18.8-3.4c-2.71,1.22-2.6,3.22-3.71,4.86a8.45,8.45,0,0,1-2.57,2.46c-.14.08-.66.35-1.33.64s-1.18.51-1.78.72l-29.06-19.61-89.94,37.84,70.16,47.34,37.21-15.66a18.55,18.55,0,0,1,2.91,2.21c1.74,2.29-.51,5.42,2.41,7.38,3.59,2.43,12.43,1.9,19.74-1.18l.61-.26C266.8,265.93,269.55,261.65,266.06,259.3Z"/>
          </g>
          <path class="cls-15" d="M209.51,269.58s3.07-2,.12-5.68c-7.64-.48-16.62-4.61-16.62-4.61-11.23-3.53-27-20.91-34.17-28.81-8.06-8.88-20.27-1.35-13.72,8.79,12.26,19,44.47,31.48,64.22,30.73"/>
          <path class="cls-66" d="M125.93,357.82c4.69-21.92,6.09-72.68,6.09-72.68s-3.76-5-17.3-5.87-12.63,7.47-12.57,6.39c0,0,0,35.92,6.23,71.29C108.38,357,118,363.61,125.93,357.82Z"/>
          <path class="cls-67" d="M102.29,288.14c-1.34-9.07,1.42-18.21,2.85-27.38h41.23c2.64,8.79,5.38,17.82,5.38,17.82s1.77,20.79-15.89,23.28C135.86,301.86,105.09,307.19,102.29,288.14Z"/>
          <path class="cls-68" d="M133.57,271.39s11.73,20,4.51,33-37.64-1.15-35.77-16.28C104.36,271.56,119.38,264.38,133.57,271.39Z"/>
          <path class="cls-2" d="M142,245.91c1.9,6.79,9.76,32.67,9.76,32.67-21.54,20.32-49.35,4.21-49.63,1.13-.33-3.67,3.77-17.71,4.51-32.85C106.63,246.86,114.31,235,142,245.91Z"/>
          <g>
            <path class="cls-5" d="M91.11,194.14S89,230,90.34,244.51c0,0,0,6.58,11.59,9.88,0,0,4.22-39.95,7.65-57.79C109.58,196.6,102.73,183.38,91.11,194.14Z"/>
            <path class="cls-5" d="M104.06,203.41a9.4,9.4,0,0,1-12.29-4.89,9.27,9.27,0,0,1,4.94-12.19,9.4,9.4,0,0,1,12.29,4.9A9.26,9.26,0,0,1,104.06,203.41Z"/>
          </g>
          <path class="cls-69" d="M99.19,184a12.3,12.3,0,0,0-8.93,11.79l-1.37,35.37a33.19,33.19,0,0,0,19.44,4.66S121,188.57,99.19,184Z"/>
          <path class="cls-2" d="M131.19,161.53s.08,12.63,1.18,25.21L115.71,184s2.44-5.75-1-10.88Z"/>
          <path class="cls-2" d="M99.19,184C95,187,94.53,194.35,96,198.92c1.72,5.25,2.4,11.94,4.12,19.53,2.32,10.28,3.9,18.2,6.49,28.41,2.15,8.44,36.08,1.64,36.08,1.64l12.17-41.56s2.09-10.85-7.74-14.46c0,0-10.35-5.59-17.93-8.16-6.69-2.26-9.12-2.48-16-2C113.22,182.27,104,182.6,99.19,184Z"/>
          <path class="cls-70" d="M148.91,270.35a25.59,25.59,0,0,1,0,24.71c-7.23,13.07-29.27,8.31-29.34-8.61C119.51,269.73,134.72,263.34,148.91,270.35Z"/>
          <path class="cls-71" d="M113.22,182.27s-9.21.33-14,1.71c-4.35,3.18-4.28,9.43-3.43,14.16,1.6,9,3.23,18.18,4.07,27.33.37,4.05,1.38,12.3,1.68,16.36s1.54,6.1,5.57,8.18c3.06,1.58,5.34.33,8.68.42,8.48.23,16.86-.7,25.26-1.74.36,0,13.48,8.81,9.16,2.3l4.7-44.05s2.09-10.85-7.74-14.46a78.67,78.67,0,0,0-14.49-6.89S119.47,185.92,113.22,182.27Z"/>
          <path class="cls-15" d="M136.8,176.12l.71-2.75,1.68-10.11a10.15,10.15,0,0,0-.31-4.17,10.16,10.16,0,0,1-.52-4.27c1-7.24-3.09-10.84-3.09-10.84-4.72-6.21-14.55-5.34-14.55-5.34-5.09.77-9.54,2.88-12.08,7.53-2.3,4.21-3.55,9.35-2.18,14.06a28.43,28.43,0,0,0,8.21,12.84c2.44,2.34,5,2.63,8.15,3.8a33.56,33.56,0,0,0,8.87,1.31C132.93,178.18,136.39,177.69,136.8,176.12Z"/>
          <path class="cls-72" d="M134.86,148.18l-1.57,6.28c-1.78.78-2.5,1.47-2.26,3.82l.57,5.19-1.41.54c.12-2.08-2.76-2.11-2.76-2.11-2.11-.12-2.47,1.68-2.35,3.41.31,4.48-1.32,11.61-5.08,12.87-1.49.49-4.29,1-4.76-1-.57-2.46-5.24-7.34-5.24-7.34-5.6-5.43-7-14.68-4.35-21.75a17.21,17.21,0,0,1,4-6,21.67,21.67,0,0,1,12.52-5.58s6.39-.78,10,1.74a20.48,20.48,0,0,1,4.64,4.24S138.16,145.41,134.86,148.18Z"/>
          <path class="cls-15" d="M129.71,168.42a2.61,2.61,0,0,1-1.64.61,3.8,3.8,0,0,1-3.7-3.67,3.48,3.48,0,0,1,3-4,3.33,3.33,0,0,1,2.38.91c.95.88,1.09,2.6.95,3.81A3.54,3.54,0,0,1,129.71,168.42Z"/>
          <g>
            <path class="cls-16" d="M128.3,163.29c-.18-1.11-2.37.1-2,.7a3.39,3.39,0,0,0,1,.82A1.63,1.63,0,0,1,128,166c0,.07,0,.26,0,.31-.28.22-1.3-.81-1.53-1a1.87,1.87,0,0,1-.39-1.76,1.13,1.13,0,0,1,1.19-.92c.51,0,1,0,1,.63,0,0,0,.12,0,.07Z"/>
            <path class="cls-16" d="M127.65,164.49c.22-.25.46-.07.71.09a1,1,0,0,1,.44.63,2.57,2.57,0,0,1-.16,1.87,1.38,1.38,0,0,1-1.17.72c-.68,0-.92-.56-1-1.13,0-.15,0-.52.09-.62s.29.13.41.23a.87.87,0,0,0,.58.18,1.25,1.25,0,0,0,1-.51,1.51,1.51,0,0,0,.09-.18c0,.37,0,.46-.05.25a.77.77,0,0,0-.14-.25c-.18-.25-.45-.42-.64-.65s-.28-.5-.17-.63Z"/>
          </g>
          <path class="cls-2" d="M221.27,265.77c-.86-1.28-.1-1.95-1.85-2-2-.07-3.78-1-5.13-1-2.35.06-11.24,2.14-5.28,7.22,1.39,1.19,5.36,6.5,8.12,4.93,4.06-2.33,2.68-1.47,4.74-6.53Z"/>
          <path class="cls-2" d="M138.36,200.49a10.44,10.44,0,1,0,14.42-3.14A10.45,10.45,0,0,0,138.36,200.49Z"/>
          <path class="cls-73" d="M151.44,239.15c1.36,14.23,2.23,49.07,2.23,49.07-5,13.47-53.21,2.1-53.49-1-.33-3.67.65-29.57,1.4-44.71A58.06,58.06,0,0,1,151.44,239.15Z"/>
          <path class="cls-74" d="M144.89,191.3c12.69,3.57,14.26,18.92,14.26,18.92l5.73,25.21s-14.41,11.43-23.2,8.22c0,0-7.16-19-9.4-38C132.28,205.65,132.37,191.71,144.89,191.3Z"/>
          <path class="cls-72" d="M137.56,148c-1.43,1.16-3.26.4-4.9,0-2.23,2.62.44,5.24-2.94,6.51a37.52,37.52,0,0,1-6.43,1.19c-1.59.25-3.19-.12-4.32,1.07s-.07,5.27-1.52,6c-2.53,1.34-4.52-5.6-7.75-5.05-2.76.46-3.25,4.84-2.28,7a3.36,3.36,0,0,0-.72-.49c-1.32-3.42-3-3.49-4.45-5.92-2.24-3.78-1.86-2.88-2.31-6.51,0,0,.44-1.58.45-1.6,1-3.86,2.86-4.52,3.72-6.16s2.33-2.94,3.5-4.46,1.62-3.3,2.86-4.55c1.89-1.91,5-2.86,7.57-3.2,2.79-.37,5.44,1.36,8.21.88,1.13-.2,2.19-1.23,3.33-1.17,1.39.08,2.35,1.46,3.55,2,2.23,1,5.75.59,7.65,2.16,2.11,1.74,1.65,4.25.36,6.37-.73,1.2-2.21,1.88-2.86,3.12C138.1,145.61,137.6,148,137.56,148Z"/>
          <g>
            <path class="cls-75" d="M0,440.5C0,446.3,46.64,451,104.18,451s104.17-4.7,104.17-10.5S161.71,430,104.18,430,0,434.7,0,440.5Z"/>
            <g>
              <path class="cls-29" d="M119.48,443.28l-2.35-.14c-.8-.12-.8,1.13-.91,1.18a25.27,25.27,0,0,1-5.56,1.76s-4.34-.56-4.81-1.88l.61-8.06c4.85-.41,9.9-1.35,9.9-1.35L127,433.3c5.12-.54,6,1.32,6,1.32S136.2,439.3,119.48,443.28Z"/>
              <path class="cls-76" d="M113,442.8a13.48,13.48,0,0,1,2.76-.9c5.25-.92,10.39-1.44,14.76-4.81a4.34,4.34,0,0,0,1.9-3.08,1.92,1.92,0,0,1,.63.61s3.14,4.68-13.58,8.66l-2.35-.14c-.8-.12-.8,1.13-.91,1.18a25.27,25.27,0,0,1-5.56,1.76s-4.34-.56-4.81-1.88l.15-2A8.4,8.4,0,0,0,113,442.8Z"/>
            </g>
            <path class="cls-77" d="M118.58,436.73c1.74-2.08,7.46-78.54,7.46-78.54.95-11.76-18.59-6.82-18.59-6.82-2.85,11.7-2.39,13.9-3.28,28.42-.36,5.74.56,53.23.35,56.89C104.52,436.68,113.59,442.69,118.58,436.73Z"/>
            <path class="cls-78" d="M187.75,435.87c-.39-2.68-20.22-82.58-20.22-82.58-4.66-9.85-18.07.53-18.07.53a85,85,0,0,0,4.86,29.57c1.82,5.45,18.68,54.79,19.85,58.25C174.17,441.64,184.13,444.8,187.75,435.87Z"/>
            <g>
              <path class="cls-29" d="M186.6,445.27l-2.35-.13c-.81-.13-.8,1.13-.91,1.17a25.63,25.63,0,0,1-5.56,1.77s-4.35-.57-4.81-1.88l.61-8.07c4.84-.4,9.9-1.34,9.9-1.34l10.64-1.5c5.13-.53,6.06,1.32,6.06,1.32S203.32,441.3,186.6,445.27Z"/>
              <path class="cls-76" d="M180.13,444.8a12.55,12.55,0,0,1,2.76-.9c5.25-.92,10.38-1.44,14.76-4.82a4.31,4.31,0,0,0,1.89-3.07,1.94,1.94,0,0,1,.64.6s3.14,4.69-13.58,8.66l-2.35-.13c-.81-.13-.8,1.13-.91,1.17a25.63,25.63,0,0,1-5.56,1.77s-4.35-.57-4.81-1.88l.15-2A8.37,8.37,0,0,0,180.13,444.8Z"/>
            </g>
          </g>
        </g>
      </g>
    </g>
  </g>
</svg>
