<svg xmlns="http://www.w3.org/2000/svg" xmlns:xlink="http://www.w3.org/1999/xlink" viewBox="0 0 464.79 434.71"><defs><style>.cls-1,.cls-23{fill:none;}.cls-2{isolation:isolate;}.cls-3{opacity:0.3;}.cls-11,.cls-13,.cls-21,.cls-22,.cls-3{mix-blend-mode:multiply;}.cls-4,.cls-6{fill:#818cf8;}.cls-5{fill:#6366f1;}.cls-6{opacity:0.2;}.cls-7{clip-path:url(#clip-path);}.cls-8{fill:#6aa181;}.cls-13,.cls-9{fill:#edb698;}.cls-10{fill:#d79a73;}.cls-12,.cls-22{fill:#eaab88;}.cls-14{fill:#4c241c;}.cls-15{fill:#c8615a;}.cls-16{fill:#a04c4a;}.cls-17{fill:#4a6e99;}.cls-18{fill:#e9c352;}.cls-19{fill:#d8a821;}.cls-20{fill:#8e6447;}.cls-21{opacity:0.5;}.cls-23{stroke:#000;stroke-miterlimit:10;}</style><clipPath id="clip-path"><path class="cls-1" d="M92.84,346.36q-3.68-1.25-7.32-2.61c-20.22-7.51-38.13-23.17-49.67-44.05a133.77,133.77,0,0,1-14.5-86.42c0-.31.11-.62.17-.93-1.61-8.83-9.77-57.92,16.9-102C63,69.68,114.79,44.36,150.28,82c15.06,16,18.8,36.32,19.84,43.73,4.67-7.94,17.19-26.87,39.61-36,39.08-15.92,73.25,12.19,76.74,15.17.82-3.11,4.06-14.12,13.66-21,14.45-10.28,30-1.64,31.19-1,.31.17,8.7-6.92,9.91-7.65a49.49,49.49,0,0,1,13.29-5.54c18.19-4.57,39.17,3.64,50.31,21.78a41.59,41.59,0,0,1,5.46,29.75c-2.44,11.62-9.63,20.94-12.94,32.18a60.6,60.6,0,0,0-.24,32.45c1.37,5.2,3.82,14.84,7.78,18.29a87.48,87.48,0,0,1,27.62,47.61c8.7,40.76-11,84.53-44.93,94-56.94,15.95-128.84,18.63-167.42,18.76C177.46,364.73,134,360.37,92.84,346.36Z"/></clipPath></defs><g class="cls-2"><g id="Layer_2" data-name="Layer 2"><g id="OBJECTS"><g class="cls-3"><path class="cls-4" d="M344.68,40.14l.68.13C342.17,48.77,334.3,51.65,324.6,52c-20.47.78-40.12-8.09-60.47-11a103.16,103.16,0,0,0-55.68,7.54C197,53.68,186.73,60.86,177,68.46a344.42,344.42,0,0,0-78,85.61c-8.85,13.85-16.93,28.64-30.12,39s-33.35,15.15-48.29,6.36c-10-5.88-15.71-16.62-18.34-27.32C-.51,160.91-.44,149.31.9,138c5-42.21,28.16-82.09,63.93-107.63S148.62-5.78,193.41,3.09c28.94,5.74,56,19.06,85,24a149.82,149.82,0,0,0,42.8,1.05c5.48-.65,11.22-1.59,16.43.28S347.34,35.66,344.68,40.14Z"/><path class="cls-4" d="M294.86,415.43c10.58,1.5,21.6,1.56,31.29-6.78s17.69-27.1,16.92-47.55c-.64-17.16-7.23-31.78-15.05-40s-16.78-11.15-25.56-14l-37.65-12.08c-11.76-3.78-23.86-7.55-35.52-2.72S206.34,312.61,203.57,335C195.23,402.54,274.76,412.59,294.86,415.43Z"/><path class="cls-4" d="M393.4,46.75c2.86,8.08,8.57,15,15.25,20.37,7.76,6.24,17.44,10.74,27.19,9.94,7.32-.6,14.05-4.12,19.86-8.5,2.84-2.13,5.58-4.57,7.2-7.75,2.28-4.48,2.08-9.85,1.52-14.92C462.26,26.33,448.1-5.27,423.21,2,404.42,7.56,386,25.83,393.4,46.75Z"/><path class="cls-4" d="M31.55,397c2.85,8.08,8.56,15,15.25,20.37,7.76,6.24,17.44,10.74,27.19,9.94,7.32-.6,14.05-4.11,19.86-8.5,2.84-2.13,5.58-4.57,7.2-7.75,2.28-4.48,2.08-9.85,1.52-14.92-2.16-19.56-16.33-51.16-41.21-43.85C42.57,357.79,24.15,376.06,31.55,397Z"/><path class="cls-4" d="M370.67,417.2c.77.6,1.59,1.17,2.44,1.72,12.68,8.16,31.9,8.78,47,6.09,17.23-3.08,36.74-16.37,38.16-40.06,1.35-22.37-14.45-39.67-29.86-47.36-14.73-7.36-31.35-10-46-2.37s-26.62,27-26.3,48.48C356.28,396.08,359.58,408.74,370.67,417.2Z"/><path class="cls-4" d="M16.89,347.93c.46.42.94.81,1.44,1.2,7.52,5.68,18.91,6.11,27.84,4.23C56.38,351.22,67.93,342,68.78,325.5a36.66,36.66,0,0,0-17.69-32.95c-8.73-5.11-18.57-6.92-27.26-1.64S8.06,309.71,8.25,324.63C8.36,333.24,10.32,342.05,16.89,347.93Z"/><ellipse class="cls-4" cx="343.12" cy="426.44" rx="8.73" ry="8.27"/><ellipse class="cls-4" cx="305.85" cy="201.86" rx="154.23" ry="136.44"/></g><path class="cls-5" d="M92.84,346.36q-3.68-1.25-7.32-2.61c-20.22-7.51-38.13-23.17-49.67-44.05a133.77,133.77,0,0,1-14.5-86.42c0-.31.11-.62.17-.93-1.61-8.83-9.77-57.92,16.9-102C63,69.68,114.79,44.36,150.28,82c15.06,16,18.8,36.32,19.84,43.73,4.67-7.94,17.19-26.87,39.61-36,39.08-15.92,73.25,12.19,76.74,15.17.82-3.11,4.06-14.12,13.66-21,14.45-10.28,30-1.64,31.19-1,.31.17,8.7-6.92,9.91-7.65a49.49,49.49,0,0,1,13.29-5.54c18.19-4.57,39.17,3.64,50.31,21.78a41.59,41.59,0,0,1,5.46,29.75c-2.44,11.62-9.63,20.94-12.94,32.18a60.6,60.6,0,0,0-.24,32.45c1.37,5.2,3.82,14.84,7.78,18.29a87.48,87.48,0,0,1,27.62,47.61c8.7,40.76-11,84.53-44.93,94-56.94,15.95-128.84,18.63-167.42,18.76C177.46,364.73,134,360.37,92.84,346.36Z"/><path class="cls-6" d="M98.84,331.44q-3.36-1.05-6.69-2.19A87.87,87.87,0,0,1,46.5,293c-13-20.62-18.52-46.29-14-70.25l.15-.75c-1.55-7.18-9.45-47.08,14.43-82.61C69,106.7,116,86.67,148.66,117.52c13.87,13.1,17.47,29.65,18.49,35.67,4.17-6.39,15.4-21.63,35.73-28.82,35.44-12.53,66.82,10.62,70,13.07.72-2.52,3.56-11.41,12.24-16.86,13.07-8.19,27.35-1,28.4-.48.28.15,7.86-5.52,8.95-6.1a47.12,47.12,0,0,1,12.05-4.36c16.53-3.53,35.71,3.34,46,18.16,4.85,7,7.13,15.85,5.26,24.19-2.12,9.4-8.57,16.9-11.48,26a44,44,0,0,0,.08,26.32c1.3,4.23,3.62,12.08,7.26,14.92,5.16,4,20.06,16.75,25.61,38.89,8.31,33.15-9.24,68.46-40,75.83C315.56,346.3,250.1,347.76,215,347.49,176.08,347.18,136.44,343.22,98.84,331.44Z"/><ellipse class="cls-5" cx="432.87" cy="172.79" rx="25.92" ry="26.62"/><ellipse class="cls-5" cx="426.1" cy="129.67" rx="8.48" ry="9.95"/><path class="cls-5" d="M434.62,212.46c-.36,4.38,2.37,8.27,6.1,8.69s7-2.79,7.41-7.16-2.37-8.27-6.11-8.69S435,208.08,434.62,212.46Z"/><path class="cls-5" d="M423.08,403.85c-.36,4.38,2.38,8.27,6.11,8.69s7-2.78,7.4-7.16-2.37-8.27-6.1-8.69S423.44,399.48,423.08,403.85Z"/><path class="cls-5" d="M298.75,64.92c-.7,8.74-8.09,15.06-16.5,14.12s-14.66-8.77-14-17.51,8.1-15.06,16.51-14.13S299.46,56.18,298.75,64.92Z"/><path class="cls-5" d="M332.58,40.18a7.53,7.53,0,0,1-8.26,7.07,8.1,8.1,0,0,1-7-8.76,7.52,7.52,0,0,1,8.25-7.06A8.09,8.09,0,0,1,332.58,40.18Z"/><ellipse class="cls-5" cx="40.2" cy="43.23" rx="29.98" ry="32.65" transform="matrix(0.97, -0.26, 0.26, 0.97, -9.71, 11.7)"/><path class="cls-5" d="M86.36,41.29a6.66,6.66,0,0,1-9.43-2.43,7.51,7.51,0,0,1,1.86-10,6.67,6.67,0,0,1,9.43,2.43A7.51,7.51,0,0,1,86.36,41.29Z"/><path class="cls-5" d="M217,410.75c.36,10.8-8.49,19.63-19.78,19.73s-20.73-8.57-21.09-19.37,8.49-19.63,19.78-19.73S216.63,400,217,410.75Z"/><path class="cls-5" d="M211,384.58a4.38,4.38,0,0,1-4.45,4.45,4.64,4.64,0,0,1-4.75-4.36,4.38,4.38,0,0,1,4.45-4.45A4.64,4.64,0,0,1,211,384.58Z"/><path class="cls-5" d="M114.75,369.05c14.68,2.59,30.06,2.44,43.91,7.84,2.84,1.11,5.67,2.5,7.63,4.75,3.92,4.48,3.3,11.41,0,16.24s-8.7,7.94-14.14,10.47a112.25,112.25,0,0,1-76.87,6.19c-25.34-7.22-47.73-24.2-60.26-46.48-3.88-6.9-6.87-14.48-6.77-22.26S12,330,19,326.08c12.39-7,24.56,1.43,32.85,9.84a117,117,0,0,0,62.91,33.13Z"/><path class="cls-5" d="M397.61,360.93c8.34-4.51,16-10.69,25-13.45a11.91,11.91,0,0,1,5.64-.61c3.68.72,6,4.49,6.24,8.25s-1.31,7.48-3.06,10.92a72.32,72.32,0,0,1-36.1,33.64c-15.45,6.4-33.17,6.66-48,.31-4.59-2-9-4.62-11.93-8.61s-4.17-9.51-2.2-14.28c3.51-8.48,12.84-9,20.22-8a72.86,72.86,0,0,0,44.2-8.13Z"/><g class="cls-7"><path class="cls-8" d="M220.61,254.89s52.88-50.68,117.24-25.62l-7.77,19.21s-73.95,1.7-85.83,23.63Z"/><path class="cls-9" d="M330.33,247.34a65.56,65.56,0,0,1,10,1.19c2.15.43,4.36,1,6.5.48s4.18-2.34,4-4.59a2.61,2.61,0,0,0,.62-4,2,2,0,0,0,1.13-2.61,5,5,0,0,0-2.13-2.33,29.78,29.78,0,0,0-13.27-5Z"/><path class="cls-10" d="M366.83,143.43a24.31,24.31,0,0,0-3.23-2.37,21.75,21.75,0,0,0-22-.53c-11.2,6.15-17.83,24-9.58,35.61,6.56,9.19,18.72,11.05,28.65,8.75,12.2-2.82,17.43-17.68,13.79-29.76A25.39,25.39,0,0,0,366.83,143.43Z"/><path d="M359.15,159.32c-.07,1,.37,1.81,1,1.87s1.18-.7,1.25-1.68-.37-1.81-1-1.87S359.22,158.34,359.15,159.32Z"/><path d="M342.61,157.39c-.07,1,.38,1.81,1,1.86s1.18-.69,1.25-1.67-.38-1.82-1-1.87S342.68,156.41,342.61,157.39Z"/><g class="cls-11"><path class="cls-12" d="M351.72,156.36a7.9,7.9,0,0,0-1.1,3.35c-.08.6-.13,1.2-.2,1.81s-.36,1.56.32,1.82a.63.63,0,0,0,.81-.43,3.88,3.88,0,0,0,.11-1c0-.61.1-1.23.16-1.84a10.57,10.57,0,0,1,.21-1.68c.14-.59.35-1.15.49-1.74a.44.44,0,0,0-.8-.33Z"/></g><path d="M355.74,166.08a5,5,0,0,1-2.13,1.2,7.43,7.43,0,0,1-2.89.25,4.9,4.9,0,0,1-3.63-2.87.42.42,0,0,0-.78.21,2.66,2.66,0,0,0,.05.75,3.24,3.24,0,0,0,.34.7,4.51,4.51,0,0,0,.92,1.12,5.51,5.51,0,0,0,2.85,1.29,7.91,7.91,0,0,0,3.45-.32,4.28,4.28,0,0,0,2.57-1.75.48.48,0,0,0-.75-.58Z"/><path class="cls-13" d="M361.24,167.49A3.78,3.78,0,0,0,365.4,171a4,4,0,0,0,3.2-4.51,3.79,3.79,0,0,0-4.16-3.48A4,4,0,0,0,361.24,167.49Z"/><path class="cls-13" d="M334.39,164.7a3.79,3.79,0,0,0,4.16,3.48,4,4,0,0,0,3.2-4.52,3.78,3.78,0,0,0-4.16-3.47A4,4,0,0,0,334.39,164.7Z"/><path class="cls-14" d="M375.15,148.87c-1.78-7.25-4.28-14.56-9.09-19.94-2.53-2.84-7.37-7.48-11.29-5.14-2.95,1.77-.62,7,1,8.89A21,21,0,0,0,345.68,126c-3.12-.84-7.81.11-6.41,4.87a6.57,6.57,0,0,0,3.71,4,17.47,17.47,0,0,0-10.06-3.38,9.75,9.75,0,0,0-4.75,1c-3.07,1.62-4.8,5.6-4.34,9.27a11.25,11.25,0,0,0,6,8.44,12.83,12.83,0,0,0,10,.43c-1.12.39-1.46,2.09-.89,3.21a4.25,4.25,0,0,0,2.9,2c3.49.86,7.14-.48,10.24-2.41a22.43,22.43,0,0,0,6.95-6.6,6.24,6.24,0,0,0,2.52,6.76,5.21,5.21,0,0,0,6.62-1.22,7.62,7.62,0,0,0,.65,5.6,3.84,3.84,0,0,0,4.66,1.77,6.57,6.57,0,0,0-.15,3.4c.29.89,1.61,2.14,2.45,1.32s.77-3.89.81-5A38.59,38.59,0,0,0,375.15,148.87Z"/><path class="cls-10" d="M380.27,166.57a3.9,3.9,0,0,1-4.32,3.56,4.1,4.1,0,0,1-3.28-4.68,3.89,3.89,0,0,1,4.32-3.57A4.11,4.11,0,0,1,380.27,166.57Z"/><g class="cls-11"><path class="cls-12" d="M377.53,163.93a.93.93,0,0,0-.71.09,4.85,4.85,0,0,0-.65.31,5.51,5.51,0,0,0-1.09.89,7,7,0,0,0-.87,1.15c-.11.2-.22.41-.31.62s-.11.24-.15.36a.79.79,0,0,0,0,.48.35.35,0,0,0,.58.15.89.89,0,0,0,.27-.33l.11-.3c.06-.15.17-.36.26-.53a5.33,5.33,0,0,1,.71-1,6.13,6.13,0,0,1,.89-.8c.16-.11.32-.22.49-.32s.45-.2.55-.4a.3.3,0,0,0-.1-.39Z"/></g><g class="cls-11"><path class="cls-12" d="M375.52,165.54a3.69,3.69,0,0,1,.64,1.1,3.58,3.58,0,0,1,.18.64.94.94,0,0,1,0,.16.54.54,0,0,0,0,.08s0,.08,0,.08a1.15,1.15,0,0,1,0,.16,1.71,1.71,0,0,0,.07.26.36.36,0,0,0,.36.17.38.38,0,0,0,.3-.26,1.83,1.83,0,0,0-.1-.83,5.16,5.16,0,0,0-.29-.74,4.06,4.06,0,0,0-.87-1.19c-.24-.23-.58.12-.37.37Z"/></g><path class="cls-15" d="M313.75,298.75s-18.27,26.93-24.18,64.91c0,0,87.91-1.17,104.68-25.57,0,0-6-21.38-17-32.48C377.27,305.61,343.31,314.93,313.75,298.75Z"/><path class="cls-16" d="M338.77,358l2.1-35L331,359.73S336.85,360.3,338.77,358Z"/><path class="cls-17" d="M313.75,298.75l-1.39-75.67c-.2-11.33,6.12-21.65,15.89-25.64l.24-.1c13.64-5.48,33.21-3.34,45.91,4.26a45.44,45.44,0,0,1,7.08,5.28c9,8.13,12.81,21.15,10,33.47-5.19,23-14.24,65.26-14.24,65.26S348.37,316.08,313.75,298.75Z"/><g class="cls-11"><path class="cls-17" d="M337.19,203.14a14.33,14.33,0,0,0,7.16,12.31,12.32,12.32,0,0,0,13.46-1.1,14.3,14.3,0,0,0,4.91-6.64c.3-.83-1-1.19-1.32-.36a12.85,12.85,0,0,1-9.56,8.27c-4.44.84-8.68-1.52-11.2-5.1a15.22,15.22,0,0,1-2.68-7.38.39.39,0,0,0-.77,0Z"/></g><path class="cls-17" d="M370.15,199.38s43.79,11.46,50.62,48.74l-32.06,4.77S384.78,213,370.15,199.38Z"/><path class="cls-10" d="M397.75,251.55s12.8,37.88-14.23,85c0,0-3.22,4,1.73,5.46,0,0-2,5.18,3.35,3.57,0,0,1,5.93,5.68,1.78,0,0,38.7-24.92,23.23-98.72Z"/><path class="cls-10" d="M342.78,184.1c-.06,0-2.12,17-2.12,17a10.7,10.7,0,0,0,8.3,8.54,10.07,10.07,0,0,0,10.68-5.75l3.12-19.57Z"/><path class="cls-13" d="M342.78,184.1s8.35,3.92,20,.17l-1.27,7.94S348.83,193.12,342.78,184.1Z"/><path class="cls-10" d="M299.47,189.74s-36.32-8.6-58.4-58.62c0,0-1.37-5.09-5.18-1.35,0,0-2.94-4.63-4.57,1.15,0,0-5.14-2.28-4.43,4.25,0,0-1.4,48.83,64.26,74.26Z"/><path class="cls-17" d="M336.45,195.1s-19.8-6.49-35.51-18.54c0,0-13.17,26.52-12.59,46.7l24.24,12.39S316.76,208,336.45,195.1Z"/><path class="cls-18" d="M258.62,235.28s-19,6.38-32.15,3.08c0,0,3.08,21.21-6.06,33.19a65.14,65.14,0,0,0,39.22.91Z"/><path class="cls-19" d="M227.39,271a33.89,33.89,0,0,0,2.64-7c.67-2.49,1.31-5,1.86-7.51a56.8,56.8,0,0,0,1.22-7.55,25.6,25.6,0,0,0-.25-7.57c-.13-.6-1.14-.48-1.08.14.11,1.28.28,2.54.31,3.83A33.3,33.3,0,0,1,232,249a56.28,56.28,0,0,1-1.2,7.5,91.89,91.89,0,0,1-4.06,14.28c-.15.39.48.65.67.29Z"/><path class="cls-10" d="M221.22,269.25s-65.84-26-92.49-48.41c0,0-3.35-1.55-.7-4.1,0,0-1.65-4.08,3-4.38,0,0-.95-3,3.39-2.66,0,0,67.29,38,92.44,33.09C226.87,242.79,228.29,260.85,221.22,269.25Z"/><path class="cls-8" d="M185.81,237c-11.18.62-20.07,10.24-20.5,22.22a219.73,219.73,0,0,1-4,34.69,215.27,215.27,0,0,1-23.62,64l111.62,8.17c-3.86-18.74-.09-92.4,1.13-101.17,1.75-12.67-10.94-24-22.78-25.83a201.18,201.18,0,0,0-22-2.18C198.62,236.58,192,236.66,185.81,237Z"/><path class="cls-9" d="M197.15,224.38l-1.46,16.27c2,5.81,7.12,9.64,12.68,9.56a13.36,13.36,0,0,0,11.66-8q-.25-6.84-.5-13.68S203.69,230.12,197.15,224.38Z"/><path class="cls-9" d="M230,191.05c-3.85-10.36-14-17.07-24-16.79a19.84,19.84,0,0,0-13.29,5.63c-4.36,4.22-6.66,10.39-7.63,16.61-1.11,7.13-.32,14.55,3.72,20.41,6,8.77,18,12.44,27.39,9,11.12-4.08,17.48-16.31,15.33-29.05A31.18,31.18,0,0,0,230,191.05Z"/><path class="cls-20" d="M231.84,201.18A11.33,11.33,0,0,1,226,206a7.44,7.44,0,0,1-6.8-1.13c-1.91-1.51-2.76-4-4.53-5.71-3.86-3.62-10.19-3.28-14.14,0-3.49,2.88-6.81,8.29-11.84,5.56-1.19-.65-4.38-2.76-4.09-4.55-1.55,9.79,2.56,20.69,10.65,25.83,4.77,3,10.06,3.7,15.49,3.76,10.62.11,20.85-7.39,21.4-19.34a41.44,41.44,0,0,0-.06-4.17c-.06-1.52-.57-3.45-.29-4.95A.25.25,0,0,1,231.84,201.18Z"/><path d="M216.66,192.4c0,1.13.51,2.06,1.23,2.09s1.35-.85,1.39-2-.52-2.06-1.24-2.09S216.7,191.28,216.66,192.4Z"/><path d="M197.36,191c-.05,1.12.51,2.06,1.23,2.09s1.34-.86,1.38-2-.51-2.07-1.23-2.1S197.4,189.86,197.36,191Z"/><g class="cls-11"><path class="cls-12" d="M208.4,187.87a9.4,9.4,0,0,0-1.11,3.78c-.06.67-.09,1.34-.14,2l-.07,1c0,.4-.07.78.24,1.07a.52.52,0,0,0,.63.08,1,1,0,0,0,.41-.87c0-.32,0-.66,0-1,0-.67.07-1.35.1-2a10.36,10.36,0,0,1,.2-1.84c.13-.63.34-1.24.49-1.88a.44.44,0,0,0-.8-.33Z"/></g><path d="M213.05,200.36a5.88,5.88,0,0,1-2.45,1.51,9,9,0,0,1-3.37.44,5.52,5.52,0,0,1-4.41-3.15c-.2-.35-.83-.22-.79.21a3.13,3.13,0,0,0,.52,1.59,5.12,5.12,0,0,0,1.1,1.22,6.27,6.27,0,0,0,3.29,1.34,9.11,9.11,0,0,0,4-.52,5,5,0,0,0,2.88-2.07.47.47,0,0,0-.74-.57Z"/><path class="cls-13" d="M219.43,201.67a4.37,4.37,0,0,0,5,3.78,4.6,4.6,0,0,0,3.53-5.33,4.35,4.35,0,0,0-5-3.78A4.6,4.6,0,0,0,219.43,201.67Z"/><path class="cls-13" d="M188.1,199.77a4.35,4.35,0,0,0,5,3.78,4.6,4.6,0,0,0,3.53-5.33,4.35,4.35,0,0,0-5-3.78A4.6,4.6,0,0,0,188.1,199.77Z"/><g class="cls-21"><path class="cls-20" d="M192,208.49a23.36,23.36,0,0,0-.38,8.21,23.69,23.69,0,0,0,.88,4,10.7,10.7,0,0,0,1.74,3.67c.24.28.69,0,.61-.35-.34-1.24-.92-2.38-1.32-3.6a24.4,24.4,0,0,1-.88-3.78,23.41,23.41,0,0,1,.18-7.92c.1-.53-.71-.77-.83-.22Z"/></g><g class="cls-21"><path class="cls-20" d="M199.35,205.52a50.06,50.06,0,0,0-.82,5.86,47.63,47.63,0,0,0-.27,6,33,33,0,0,0,.51,5.34c.17.88.37,1.76.63,2.63a13.13,13.13,0,0,0,.46,1.38,3,3,0,0,0,.24.58c.09.16.24.23.35.38a.29.29,0,0,0,.52-.22c0-.16,0-.31,0-.47a3.88,3.88,0,0,0-.21-.63c-.14-.43-.28-.86-.4-1.29a24.38,24.38,0,0,1-.58-2.53,34.86,34.86,0,0,1-.5-5.39c0-1.88.07-3.76.21-5.63s.45-3.93.5-5.89a.33.33,0,0,0-.65-.09Z"/></g><g class="cls-21"><path class="cls-20" d="M207.51,205.7a87.85,87.85,0,0,1-.58,20.56c-.05.34.44.5.53.15a52.74,52.74,0,0,0,.66-20.79c-.06-.34-.64-.27-.61.08Z"/></g><g class="cls-21"><path class="cls-20" d="M214.53,207.36a21.92,21.92,0,0,0,.09,2.69c0,.82.06,1.64.09,2.46,0,1.76,0,3.52,0,5.28s-.1,3.44-.21,5.15c-.05.86-.09,1.71-.14,2.57a8.12,8.12,0,0,0-.17,2.5.23.23,0,0,0,.41.05,7,7,0,0,0,.43-2.46c.13-.85.26-1.68.35-2.54.17-1.75.27-3.51.31-5.27s0-3.52-.09-5.28c0-.9-.12-1.8-.21-2.7a14.15,14.15,0,0,0-.34-2.52.28.28,0,0,0-.54.07Z"/></g><g class="cls-21"><path class="cls-20" d="M222.45,209.47a20.78,20.78,0,0,1,.13,8.53,37.42,37.42,0,0,1-1.06,3.9,23.52,23.52,0,0,0-1.2,3.91c0,.22.27.24.37.1a16.27,16.27,0,0,0,1.72-3.88,28.15,28.15,0,0,0,1.19-4.22,15.47,15.47,0,0,0-.55-8.5.31.31,0,0,0-.6.16Z"/></g><path class="cls-20" d="M232.46,205a64.37,64.37,0,0,0,2.72-16.56c.15-4.66-.34-9.69-3.19-13.22s-7.6-4.8-11.68-6.75a36.69,36.69,0,0,1-6.66-4.16,20.27,20.27,0,0,1-5.6-6.09,27.58,27.58,0,0,1-2.38-7.29c-4.29,3-6.12,9.38-4.12,14.4a33.61,33.61,0,0,1-5.07-7.71,7.34,7.34,0,0,0-2,5.28,7.24,7.24,0,0,0,2.35,5.09,21.55,21.55,0,0,1-12-8.92,6.76,6.76,0,0,0-1.82-2.23.59.59,0,0,0-.44-.13c-.18,0-.31.21-.41.37a17.61,17.61,0,0,0-2.21,13.56A19.81,19.81,0,0,0,187.49,182c-1.53,0-3.5-.3-4.61-1.44a5.79,5.79,0,0,0,.19,4.53,5.18,5.18,0,0,0,3.37,2.76,12.78,12.78,0,0,0-2.57,6.62,23.35,23.35,0,0,0,.66,7.16,36.3,36.3,0,0,1,1.29-4.39c1.6-4.1,3.37-8.21,6.06-11.6a22.79,22.79,0,0,1,8.67-6.73c1.72.5,3.38,1,5.11,1.46a19.26,19.26,0,0,0,10.72-.33c2.67.71,4.9,2.76,6.67,5a40.89,40.89,0,0,1,4.31,7.51A74.46,74.46,0,0,1,232.46,205Z"/><g class="cls-21"><path class="cls-20" d="M184.65,169.17a19.25,19.25,0,0,0,3.78,6.43,18.68,18.68,0,0,0,2.74,2.44,14,14,0,0,0,1.54,1,5,5,0,0,0,1.71.72c.34.05.73-.38.39-.66a8.88,8.88,0,0,0-1.46-.86c-.51-.28-1-.59-1.49-.92a17,17,0,0,1-2.67-2.26,19,19,0,0,1-4-6c-.13-.32-.65-.19-.53.15Z"/></g><g class="cls-21"><path class="cls-20" d="M191.28,170.67a30.25,30.25,0,0,0,4.87,4.32,15.39,15.39,0,0,0,2.7,1.48,5.07,5.07,0,0,0,2.92.57.31.31,0,0,0,.07-.56,5.15,5.15,0,0,0-1.23-.44,13.93,13.93,0,0,1-1.41-.51,14.92,14.92,0,0,1-2.65-1.4,44.13,44.13,0,0,1-4.87-3.86c-.27-.23-.65.14-.4.4Z"/></g><g class="cls-21"><path class="cls-20" d="M199.44,169.5a41.37,41.37,0,0,1,3.05,3.16A7,7,0,0,0,206,175a.31.31,0,0,0,.24-.56,16.1,16.1,0,0,1-3.26-2.55,27.08,27.08,0,0,0-3.14-2.92c-.29-.22-.67.27-.39.5Z"/></g><g class="cls-21"><path class="cls-20" d="M205.63,164a41.37,41.37,0,0,0,3.18,6.52,20.86,20.86,0,0,0,2,2.83,9.19,9.19,0,0,0,2.62,2.31.4.4,0,0,0,.48-.62c-.75-.81-1.62-1.48-2.34-2.32a23.85,23.85,0,0,1-2.07-2.83c-1.23-2-2.18-4.1-3.26-6.16-.18-.34-.78-.1-.64.27Z"/></g><g class="cls-21"><path class="cls-20" d="M213.78,170a28.25,28.25,0,0,0,2.85,4.68c.52.7,1.06,1.4,1.64,2.05a6.45,6.45,0,0,0,2,1.74c.18.07.35-.08.26-.26a9.24,9.24,0,0,0-1.55-2c-.58-.66-1.16-1.33-1.7-2a47.81,47.81,0,0,1-3-4.46.31.31,0,0,0-.53.31Z"/></g><path class="cls-9" d="M238.23,202.44a4.47,4.47,0,0,1-4.77,4.21,4.6,4.6,0,0,1-3.92-5.1,4.46,4.46,0,0,1,4.76-4.21A4.6,4.6,0,0,1,238.23,202.44Z"/><g class="cls-11"><path class="cls-12" d="M235.44,199.77a.71.71,0,0,0-.64.21c-.19.14-.36.29-.53.44a9.55,9.55,0,0,0-.92,1,9.9,9.9,0,0,0-.77,1.14c-.1.2-.21.39-.3.6a1.92,1.92,0,0,0-.14.36.65.65,0,0,0,.08.45.31.31,0,0,0,.36.14.78.78,0,0,0,.47-.47c.08-.18.17-.37.26-.55A8.73,8.73,0,0,1,234,202a7.89,7.89,0,0,1,.72-.9l.42-.42.22-.19a1.07,1.07,0,0,1,.19-.18.31.31,0,0,0-.07-.57Z"/></g><g class="cls-11"><path class="cls-12" d="M233.83,201.57a7.27,7.27,0,0,1,.41,1.52c0,.25,0,.49.06.74s0,.26,0,.39a.71.71,0,0,0,.09.45.3.3,0,0,0,.47.06.74.74,0,0,0,.15-.48c0-.13,0-.26,0-.39a6.57,6.57,0,0,0-.12-.89,7.65,7.65,0,0,0-.52-1.62c-.14-.31-.66-.09-.54.22Z"/></g><path class="cls-8" d="M187.94,252.22S130.1,207.63,68.71,239.6l9.72,18.24s73.71-6.41,87.79,14.09Z"/><path class="cls-9" d="M78.06,256.74A65.35,65.35,0,0,0,68.29,259c-2.1.66-4.24,1.43-6.42,1.19s-4.4-1.88-4.5-4.12a2.61,2.61,0,0,1-1-3.88,2,2,0,0,1-1.4-2.48,5.1,5.1,0,0,1,1.88-2.55,30.15,30.15,0,0,1,12.67-6.39Z"/><path class="cls-19" d="M143.25,180a36.25,36.25,0,0,0-29,.76c-10.79,5.07-14.72,15.39-19.77,25.66-8.72,17.73-23.42,31.35-43.4,33-6.32.53-12.58.64-18,4.45C26.19,248.78,23,257.16,22.7,265.57c-.87,24.74,20.56,43.47,43,46.9A68.24,68.24,0,0,0,93,310.71c26.13-6.84,45.94-28.57,56.7-53.23.61-1.37,1.18-2.76,1.72-4.16A100.07,100.07,0,0,0,157.82,209c-.26-3-.72-6-1.22-9-1-6.07-2.85-12.5-7.61-16.62a16.46,16.46,0,0,0-2.81-2A31.71,31.71,0,0,0,143.25,180Z"/><path class="cls-12" d="M126.88,183.1a19.4,19.4,0,0,0-8.36,5.2,17.8,17.8,0,0,0-1.47,1.78c-2.91,4-3.85,9.2-3.81,14.14v.17a28.26,28.26,0,0,0,1.37,8.37,22.35,22.35,0,0,0,4.18,7.68,22.6,22.6,0,0,0,10.84,6.69A22,22,0,0,0,143.3,227a17.7,17.7,0,0,0,9.44-9,30,30,0,0,0,2.69-15c-.3-5-1.43-10.13-4.53-14.06-3.54-4.48-8.5-6.53-14-7A25.84,25.84,0,0,0,126.88,183.1Z"/><path d="M127.81,202.65c.1.85-.29,1.59-.86,1.66s-1.11-.57-1.2-1.42.3-1.6.87-1.66S127.72,201.8,127.81,202.65Z"/><path d="M143.17,200.43c.09.85-.3,1.6-.87,1.66s-1.1-.57-1.2-1.42.3-1.59.87-1.66S143.07,199.58,143.17,200.43Z"/><g class="cls-11"><path class="cls-12" d="M133.82,200.14c.11.43.28.84.41,1.26a6.35,6.35,0,0,1,.27,1.28c.06.45.11.91.17,1.36a7.53,7.53,0,0,0,.21,1.5.62.62,0,0,0,1.22-.16,3.81,3.81,0,0,0-.09-.82l-.1-.74c-.07-.47-.13-.94-.22-1.4a6,6,0,0,0-1.08-2.61c-.28-.37-.93-.18-.79.33Z"/></g><path d="M130.44,209a3.89,3.89,0,0,0,2.36,1.47,8,8,0,0,0,3.18.22,5.2,5.2,0,0,0,2.62-1.16,4.49,4.49,0,0,0,.92-1.07,2.3,2.3,0,0,0,.33-1.35.42.42,0,0,0-.78-.22c-.1.17-.23.3-.32.46s-.15.3-.24.44a3.62,3.62,0,0,1-.74.82,4.06,4.06,0,0,1-2.1.88,7.45,7.45,0,0,1-2.49-.13,5.17,5.17,0,0,1-2.09-1c-.39-.29-.88.27-.65.66Z"/><path class="cls-22" d="M126.12,209.85a3.45,3.45,0,0,1-3.74,3.16,3.5,3.5,0,0,1-3.08-3.84A3.45,3.45,0,0,1,123,206,3.49,3.49,0,0,1,126.12,209.85Z"/><path class="cls-22" d="M150.81,206.55a3.45,3.45,0,0,1-3.74,3.16,3.52,3.52,0,1,1,3.74-3.16Z"/><path class="cls-23" d="M129.66,207.27l-7.24,1.27a3.5,3.5,0,0,1-4-2.92l-.67-4a3.57,3.57,0,0,1,2.85-4.12l7.24-1.27a3.51,3.51,0,0,1,4,2.92l.66,4A3.56,3.56,0,0,1,129.66,207.27Z"/><path class="cls-23" d="M149.42,203.82l-8.35,1.46a3,3,0,0,1-3.37-2.45l-.86-5.18a3,3,0,0,1,2.39-3.46l8.35-1.46a3,3,0,0,1,3.37,2.45l.86,5.18A3,3,0,0,1,149.42,203.82Z"/><path d="M132.48,200c.34-.21.67-.44,1-.63a6.4,6.4,0,0,1,1-.45,6.07,6.07,0,0,1,1.12-.26,3.17,3.17,0,0,1,.47,0,.55.55,0,0,1,.37.09.61.61,0,0,0,.61-1.05,2.09,2.09,0,0,0-1.39-.22,7.29,7.29,0,0,0-1.39.28,6.47,6.47,0,0,0-2.54,1.4.56.56,0,0,0,.68.88Z"/><path class="cls-19" d="M112.59,182a12.06,12.06,0,0,0-1.28,3.41,20.07,20.07,0,0,0,2.35,13.29l2.35-.44-.23-11.16,1.51,10,13.71-2-.39-9.45,2,9.07,11.17-2.07-.48-4,1.91,3.8,9.08-1.2a19.92,19.92,0,0,0-2.49-9.81,18.76,18.76,0,0,0-3.86-4.8,26.33,26.33,0,0,0-17.66-4.81C124.1,172.49,116,175.93,112.59,182Z"/><g class="cls-11"><path class="cls-19" d="M120.14,176.85a8.82,8.82,0,0,0-.14,2.3c0,.81,0,1.63.08,2.44.09,1.56.25,3.11.47,4.66s.56,3.13,1,4.68a22.41,22.41,0,0,0,1.53,4.51c.2.4.78.11.69-.3-.34-1.51-.85-3-1.24-4.48s-.69-3-1-4.56-.45-3.07-.56-4.62c-.06-.78-.1-1.56-.12-2.33a13.54,13.54,0,0,0-.12-2.3.31.31,0,0,0-.59,0Z"/></g><g class="cls-11"><path class="cls-19" d="M123.71,178a41.12,41.12,0,0,0,.43,7.84c.19,1.29.4,2.57.66,3.84.13.68.27,1.36.42,2a5.11,5.11,0,0,0,.56,1.8c.1.14.39.15.42-.06a10.78,10.78,0,0,0-.53-3.5c-.27-1.32-.53-2.63-.75-3.95a48.77,48.77,0,0,1-.73-8,.24.24,0,0,0-.48,0Z"/></g><g class="cls-11"><path class="cls-19" d="M132.08,176.1a9.06,9.06,0,0,1,1.41,3.17c.34,1.18.67,2.37.94,3.58s.49,2.42.68,3.65c.1.66.18,1.34.26,2a7,7,0,0,0,.28,1.76c.12.3.6.38.68,0a5.65,5.65,0,0,0,0-1.88c-.07-.64-.16-1.27-.25-1.9-.21-1.38-.49-2.75-.82-4.11a39.38,39.38,0,0,0-1.11-3.85,7.27,7.27,0,0,0-1.61-2.85c-.27-.28-.65.13-.42.42Z"/></g><g class="cls-11"><path class="cls-19" d="M135.45,176.84a35,35,0,0,1,2.08,6.41c.23,1,.42,2.09.56,3.14a18,18,0,0,0,.48,3.37.28.28,0,0,0,.54,0,9.16,9.16,0,0,0-.11-3.38,29.73,29.73,0,0,0-.65-3.36,34.38,34.38,0,0,0-2.36-6.5c-.18-.36-.69,0-.54.32Z"/></g><g class="cls-11"><path class="cls-19" d="M140.15,177.83c.23-.19,1.88,2.12,2,2.34a20.57,20.57,0,0,1,1.65,2.93,24.69,24.69,0,0,1,1.21,3.13c.16.52.32,1,.46,1.55a3.76,3.76,0,0,0,.58,1.5.38.38,0,0,0,.62-.16,4,4,0,0,0-.28-1.89c-.18-.67-.39-1.33-.63-2a25.5,25.5,0,0,0-1.69-3.82,17.05,17.05,0,0,0-2.33-3.27c-.34-.37-.77-.92-1.29-1a.6.6,0,0,0-.79.52c0,.26.3.33.46.19Z"/></g><g class="cls-11"><path class="cls-19" d="M144.14,178.38c1.47.73,2.21,2.39,2.82,3.83a22.54,22.54,0,0,1,.94,2.65c.13.43.26.86.37,1.3s.12,1,.48,1.26a.34.34,0,0,0,.52-.06,1.74,1.74,0,0,0,0-1.29c-.12-.53-.25-1-.41-1.56a24.35,24.35,0,0,0-1.09-2.88c-.7-1.54-1.58-3.22-3.22-3.91-.44-.19-.84.43-.39.66Z"/></g><path class="cls-12" d="M116.1,208.42a4.74,4.74,0,0,1-5.14,4.35,4.8,4.8,0,0,1-4.23-5.28,4.75,4.75,0,0,1,5.13-4.35A4.81,4.81,0,0,1,116.1,208.42Z"/><g class="cls-11"><path class="cls-12" d="M111.74,205.22a4.2,4.2,0,0,0-.8,1.27,9.23,9.23,0,0,0-.53,1.5,8.09,8.09,0,0,0-.24,1.54q0,.38,0,.75a1.12,1.12,0,0,0,.2.79.32.32,0,0,0,.5-.06,1.14,1.14,0,0,0,.09-.73c0-.25,0-.5,0-.75a9.18,9.18,0,0,1,.2-1.38,10.47,10.47,0,0,1,.4-1.35c.18-.45.45-.88.59-1.35a.24.24,0,0,0-.4-.23Z"/></g><g class="cls-11"><path class="cls-12" d="M111,207.83a2.7,2.7,0,0,0,.4.7l.43.63.43.63.22.32a1.31,1.31,0,0,0,.27.35.4.4,0,0,0,.45.06.39.39,0,0,0,.18-.43,3.09,3.09,0,0,0-.45-.7l-.44-.61-.44-.62-.27-.35a1.74,1.74,0,0,0-.25-.29.33.33,0,0,0-.39-.05.34.34,0,0,0-.14.36Z"/></g><path class="cls-10" d="M156,244.88s43.78-.78,26,119.88c0,0-21.31-1.9-25.27-3.62C156.77,361.14,180.88,258.39,156,244.88Z"/><path class="cls-15" d="M85.55,253.23c5-6.76,12.56-11,20.69-12.87,7.09-1.66,14.34-1.35,21.57-1.08a95.18,95.18,0,0,1,22.09,3.28,36.13,36.13,0,0,1,25.33,43.36q-9.22,37.62-18.46,75.22A136.58,136.58,0,0,1,99.25,345,132.36,132.36,0,0,1,77.43,330.1a109.18,109.18,0,0,1-2.81-45.73C76.28,273.52,79.17,261.87,85.55,253.23Z"/><polygon class="cls-16" points="102.66 250.88 100.59 249.98 98.7 251.21 98.9 248.92 97.17 247.46 99.35 246.94 100.17 244.8 101.33 246.77 103.56 246.91 102.09 248.65 102.66 250.88"/><polygon class="cls-16" points="158.98 257.96 156.92 257.07 155.03 258.3 155.22 256.01 153.49 254.54 155.68 254.03 156.5 251.88 157.65 253.86 159.89 254 158.42 255.74 158.98 257.96"/><polygon class="cls-16" points="115.01 319.98 112.95 319.08 111.06 320.32 111.25 318.02 109.52 316.56 111.7 316.04 112.53 313.9 113.68 315.87 115.92 316.01 114.45 317.75 115.01 319.98"/><polygon class="cls-16" points="155.2 315.52 153.14 314.62 151.25 315.86 151.44 313.57 149.71 312.1 151.9 311.58 152.72 309.44 153.87 311.41 156.11 311.55 154.64 313.29 155.2 315.52"/><polygon class="cls-16" points="139.45 268.54 138.4 268.08 137.44 268.71 137.54 267.54 136.66 266.8 137.77 266.53 138.19 265.44 138.78 266.45 139.92 266.52 139.17 267.4 139.45 268.54"/><polygon class="cls-16" points="152.52 296.46 151.47 296 150.51 296.63 150.61 295.46 149.73 294.72 150.84 294.45 151.26 293.36 151.85 294.37 152.99 294.44 152.24 295.32 152.52 296.46"/><polygon class="cls-16" points="91.22 325.12 90.17 324.66 89.21 325.29 89.31 324.12 88.43 323.38 89.54 323.11 89.96 322.02 90.55 323.03 91.69 323.1 90.94 323.98 91.22 325.12"/><polygon class="cls-16" points="150.64 350.36 149.59 349.9 148.63 350.53 148.72 349.36 147.84 348.62 148.96 348.35 149.38 347.26 149.96 348.27 151.1 348.34 150.35 349.22 150.64 350.36"/><polygon class="cls-16" points="100.07 264.64 99.02 264.19 98.06 264.82 98.16 263.65 97.27 262.9 98.39 262.64 98.81 261.55 99.39 262.55 100.53 262.62 99.78 263.51 100.07 264.64"/><polygon class="cls-16" points="101.08 287.67 99.02 286.77 97.12 288.01 97.32 285.71 95.59 284.25 97.77 283.73 98.59 281.59 99.75 283.56 101.99 283.7 100.52 285.44 101.08 287.67"/><polygon class="cls-16" points="118.5 260.01 115.82 256.13 111.19 256.2 113.95 252.38 112.45 247.88 116.85 249.4 120.55 246.54 120.5 251.3 124.29 254.04 119.87 255.46 118.5 260.01"/><polygon class="cls-16" points="139.38 341.42 136.7 337.54 132.06 337.61 134.83 333.8 133.33 329.29 137.72 330.81 141.43 327.96 141.38 332.71 145.17 335.45 140.75 336.88 139.38 341.42"/><polygon class="cls-16" points="160.02 284 157.34 280.12 152.71 280.19 155.47 276.38 153.97 271.87 158.36 273.39 162.07 270.54 162.02 275.3 165.81 278.04 161.39 279.46 160.02 284"/><polygon class="cls-16" points="130.12 299.84 126.75 294.98 120.94 295.07 124.41 290.27 122.53 284.63 128.04 286.53 132.69 282.95 132.63 288.92 137.38 292.36 131.83 294.14 130.12 299.84"/><path class="cls-12" d="M121.45,223a16.07,16.07,0,0,1,1.62,9,15.69,15.69,0,0,1-2.66,7.07l3.17,4.54a12.4,12.4,0,0,0,21.64-2.21h0a14.1,14.1,0,0,1,.32-15.41Z"/><path class="cls-22" d="M125.64,225.59s11.81,5.64,19.9.4c0,0-3.19,5.13-2.43,8.85C143.11,234.84,132.91,233.27,125.64,225.59Z"/><path class="cls-12" d="M97.26,259.37c10.23,19.85.27,45.59,11.42,65a34.73,34.73,0,0,0,17.43,14.88c13.53,5.23,29.47,1.76,42.57,8a5.93,5.93,0,0,1,2.86,2.29,2.25,2.25,0,0,1-.9,3.13c3.43,1.31,1.23,3.77-.44,4.65.93-.49,1.84.34,2.1,1.24.35,1.24-.65,2.34-1.65,2.88-2.5,1.35-5.45,1.25-8.19,1-10.69-.84-21.45-1.42-32.07-3.05a110.58,110.58,0,0,1-30.7-8.9q-2.41-1.14-4.74-2.43a48.66,48.66,0,0,1-18.09-17c-4.64-7.73-5.77-16.95-6-25.86,0-1.17,0-2.35,0-3.52-.14-13.74,1.54-29.47,8.67-41.4,2.2-3.67,6.35-9.63,11.32-7.55C93.72,253.94,95.88,256.67,97.26,259.37Z"/><path class="cls-15" d="M321.63,202.72c-3.37-8.11-5-12.17-6.4-14.3a25,25,0,0,0-21.12-11.5c-8.63.15-16.46,4.85-24.45,8.23-4.32,1.84-9.52,3.24-13.48.68a7.82,7.82,0,0,0,7.89,6.17,20.93,20.93,0,0,1-5,4.78c-2,1.38-4.41,2.46-6.73,1.87-.49,12.47,5.37,25.18,15.41,32.22a39.93,39.93,0,0,0,34.9,4.91,27.77,27.77,0,0,0,8.83-4.55c-.75-1.35-1.58-3-2.33-4.36.63,0,1.07.57,1.56,1a5.46,5.46,0,0,0,2.18.9,37.11,37.11,0,0,0,4.75,1,18.65,18.65,0,0,0,12.9-3.35,4.61,4.61,0,0,1-1.88-.76,17.92,17.92,0,0,1-4.94-5.42,8.47,8.47,0,0,0,7.89,1.65,10.48,10.48,0,0,0,6.23-5.42c-3.34-.31-8.23-1.36-11.78-5.18C324.2,209.23,323.55,207.34,321.63,202.72Z"/><path class="cls-10" d="M300.71,227.06a18,18,0,0,1-14.23-.27c-8-3.52-11.26-11.23-11.23-19.29a32.22,32.22,0,0,1,3.88-15.17c2.45-4.49,6.48-9.28,11.39-10.85,5.78-1.85,12.62.18,17,4.35a22.74,22.74,0,0,1,5.87,9.15C317.24,206.41,312.06,222.32,300.71,227.06Z"/><path d="M299.29,202.3c-.23,1,.12,1.87.76,2s1.35-.49,1.58-1.46-.12-1.87-.77-2S299.51,201.34,299.29,202.3Z"/><path d="M282.12,197.56c-.22,1,.12,1.87.77,2s1.35-.5,1.57-1.46-.12-1.88-.76-2S282.35,196.59,282.12,197.56Z"/><g class="cls-11"><path class="cls-12" d="M292,198.05a7.78,7.78,0,0,0-1.69,3.15c-.18.6-.33,1.21-.49,1.81s-.58,1.45,0,1.84a.62.62,0,0,0,.88-.2,3.55,3.55,0,0,0,.29-1l.45-1.83a11.18,11.18,0,0,1,.5-1.71c.23-.54.53-1,.76-1.57s-.32-.92-.68-.53Z"/></g><path d="M294.72,208.46a5.5,5.5,0,0,1-2.49.86,8.67,8.67,0,0,1-3-.22,5.2,5.2,0,0,1-3.54-3.48.42.42,0,0,0-.83.11,2.69,2.69,0,0,0,.25,1.53,4.79,4.79,0,0,0,.86,1.31,6.06,6.06,0,0,0,2.77,1.68,8.9,8.9,0,0,0,3.52.23,4.6,4.6,0,0,0,3-1.27c.32-.4-.09-1.06-.58-.75Z"/><path class="cls-13" d="M300.25,210.82a4,4,0,1,0,4.07-4A4,4,0,0,0,300.25,210.82Z"/><path class="cls-13" d="M276.19,207.64a4.1,4.1,0,0,1-.94-.14,31.89,31.89,0,0,1,1.05-8h.09a4.07,4.07,0,0,1-.2,8.14Z"/><path class="cls-15" d="M290.18,179.48c-3.95,1.4-7.14,4.38-10.64,6.72a37.47,37.47,0,0,1-10.74,5A30.69,30.69,0,0,0,279.67,194a16.48,16.48,0,0,0,10.63-3.07,10.13,10.13,0,0,1-3.2,2.88c3.4,1.55,7.6.29,10.24-2.39,2.1-2.13,5.14-7.38,3.93-10.58C300,177.32,292.7,178.58,290.18,179.48Z"/><path class="cls-15" d="M300.83,180s16.75,3.69,15.38,22.86C316.21,202.89,301,200.67,300.83,180Z"/><g class="cls-21"><path class="cls-15" d="M274.85,195c-.83.54-1.56,1.25-2.34,1.86s-1.66,1.23-2.51,1.8a44.88,44.88,0,0,1-5.06,3,50.53,50.53,0,0,1-5.46,2.32c-.92.32-1.83.67-2.76,1s-2,.53-3,.86c-.12,0-.11.24,0,.24a25.22,25.22,0,0,0,5.95-1.25,41.91,41.91,0,0,0,5.52-2.23,44.28,44.28,0,0,0,5.25-3.05q1.26-.85,2.46-1.8a15.09,15.09,0,0,0,2.36-2.08c.26-.3-.07-.83-.44-.58Z"/></g><g class="cls-21"><path class="cls-15" d="M272.64,204.78a34.85,34.85,0,0,1-6.59,5.71,33.47,33.47,0,0,1-3.63,2.09c-1.31.65-2.69,1.12-4,1.75-.32.15-.08.59.23.54a17.19,17.19,0,0,0,4.11-1.51,30.68,30.68,0,0,0,3.83-2.17,30,30,0,0,0,6.57-5.9c.29-.35-.19-.86-.51-.51Z"/></g><g class="cls-21"><path class="cls-15" d="M273.83,215.2a15.17,15.17,0,0,1-3.34,4.52,15.78,15.78,0,0,1-2.22,1.68c-.37.24-.76.47-1.16.68a4.94,4.94,0,0,0-1.24.67.29.29,0,0,0,.2.49,3,3,0,0,0,1.32-.43,14.66,14.66,0,0,0,1.31-.67,14.44,14.44,0,0,0,2.34-1.78,14.72,14.72,0,0,0,3.43-4.79c.19-.42-.43-.8-.64-.37Z"/></g><g class="cls-21"><path class="cls-15" d="M312.81,219.24a9.14,9.14,0,0,0,3.53,5.17,10.44,10.44,0,0,0,2.7,1.33,9.78,9.78,0,0,0,1.41.38c.38.07,1.05.26,1.38,0a.22.22,0,0,0,.08-.29c-.24-.31-.76-.35-1.12-.46s-.85-.26-1.27-.41a11.68,11.68,0,0,1-2.56-1.25,7.85,7.85,0,0,1-2-1.89c-.64-.88-1.07-1.87-1.63-2.81a.26.26,0,0,0-.47.2Z"/></g><g class="cls-21"><path class="cls-15" d="M317.23,205.86a17.92,17.92,0,0,0,5.5,7.32,17.69,17.69,0,0,0,3.88,2.31,11.08,11.08,0,0,0,4.43,1.13.31.31,0,0,0,.08-.61,43.46,43.46,0,0,1-4.15-1.32,18.25,18.25,0,0,1-9.23-9.05c-.13-.28-.63-.08-.51.22Z"/></g><g class="cls-21"><path class="cls-15" d="M315.16,212.44a11.46,11.46,0,0,0,2.47,3.42,10.85,10.85,0,0,0,1.65,1.3,8.34,8.34,0,0,0,.92.52,2.62,2.62,0,0,0,1,.33.3.3,0,0,0,.21-.51,3.87,3.87,0,0,0-.85-.52l-.83-.5a11.6,11.6,0,0,1-1.56-1.21,11.89,11.89,0,0,1-2.44-3.16c-.2-.38-.74-.05-.57.33Z"/></g><path class="cls-18" d="M209.3,365.63c.52-24.32,5-63.4,27.95-102.44A194.75,194.75,0,0,1,256.55,236a81.38,81.38,0,0,1,30.53-2,82.27,82.27,0,0,1,31.58,10.83,392.42,392.42,0,0,0-25,118.46C282.25,364.38,270.23,365.23,209.3,365.63Z"/><path class="cls-19" d="M279.52,235.33a31.87,31.87,0,0,0-11.47,2.79,96.77,96.77,0,0,0-10.13,5.45,14.42,14.42,0,0,1,6.5,2.61,14.79,14.79,0,0,1,3.34,3.43,11.68,11.68,0,0,0-5.11,4.06,12.1,12.1,0,0,0-2.2,6.46l12.22-1q4.9-10.08,9.83-20.14a31.53,31.53,0,0,0,1.61-3.38A22.86,22.86,0,0,0,279.52,235.33Z"/><path class="cls-19" d="M299,240.51a33.9,33.9,0,0,1,4.19,11.31,101.26,101.26,0,0,1,1.28,11.67,14.62,14.62,0,0,0-5.75-4.06,14.25,14.25,0,0,0-4.63-.92,12.35,12.35,0,0,1-.41,6.62,12,12,0,0,1-4,5.5q-3-5.47-6-10.94Q289,249.85,294.32,240a32.18,32.18,0,0,1,1.83-3.26A24.15,24.15,0,0,1,299,240.51Z"/><path class="cls-10" d="M281.94,224a12.58,12.58,0,0,1,.59,6.3,12.39,12.39,0,0,1-2.84,6.13,19.45,19.45,0,0,0-6.75,5.29,22.91,22.91,0,0,0-4.77,14.19,9.21,9.21,0,0,0,1.24,4.75c2.07,3.29,6.26,3.75,9.71,3.14,3.9-.68,6.36-2.73,9.29-5.24a33,33,0,0,0,8.79-11.93,33.32,33.32,0,0,0,2.55-10,10.81,10.81,0,0,1,1.74-9.9C299.26,226.78,296.78,226.73,281.94,224Z"/><path class="cls-18" d="M318.66,244.81s24.09,15.91,29,38.49c0,0-25.2,17.79-43.58,8.68C304.08,292,309,261.85,318.66,244.81Z"/><path class="cls-19" d="M309.66,290c9.2,2.25,18.6-.9,26.84-4.91,2.38-1.16,4.75-2.36,7-3.68a.59.59,0,0,0-.6-1c-4.07,2-8,4.26-12.23,6a43,43,0,0,1-13.13,3.36,29.53,29.53,0,0,1-7.74-.41c-.43-.08-.62.56-.18.66Z"/><path class="cls-10" d="M340.4,287.6s9.09,32.26-3.49,72.4l-20.61,2.49s15.34-55.39,1.14-67.95C317.44,294.54,333.13,291.9,340.4,287.6Z"/><path class="cls-13" d="M281.94,224s6.72,6.69,17.83,2.76l-18.52,7.38A12.42,12.42,0,0,0,281.94,224Z"/></g></g></g></g></svg>